<?xml version="1.0" encoding="utf-8"?>
<!-- Generator: Adobe Illustrator 21.1.0, SVG Export Plug-In . SVG Version: 6.00 Build 0)  -->
<svg version="1.1" id="Calque_1" xmlns="http://www.w3.org/2000/svg" xmlns:xlink="http://www.w3.org/1999/xlink" x="0px" y="0px"
	 viewBox="0 0 194.3 93.4" style="enable-background:new 0 0 194.3 93.4;" xml:space="preserve">
<style type="text/css">
	.st0{clip-path:url(#SVGID_2_);fill:url(#SVGID_3_);}
	.st1{fill:#32368C;}
</style>
<g>
	<defs>
		<path id="SVGID_1_" d="M4.8,0C2.1,0,0,2.1,0,4.8v83.8c0,2.6,2.1,4.8,4.8,4.8h184.7c2.6,0,4.8-2.1,4.8-4.8V4.8
			c0-2.6-2.1-4.8-4.8-4.8H4.8z"/>
	</defs>
	<clipPath id="SVGID_2_">
		<use xlink:href="#SVGID_1_"  style="overflow:visible;"/>
	</clipPath>
	
		<radialGradient id="SVGID_3_" cx="-302.5529" cy="729.6758" r="1" gradientTransform="matrix(76.203 0 0 -76.203 23152.5781 55650.1719)" gradientUnits="userSpaceOnUse">
		<stop  offset="0" style="stop-color:#FFED00"/>
		<stop  offset="0.3362" style="stop-color:#F5D800"/>
		<stop  offset="1" style="stop-color:#DCA300"/>
	</radialGradient>
	<rect x="0" y="0" class="st0" width="194.3" height="93.4"/>
</g>
<g>
	<path class="st1" d="M7.2,9.8h15.5c1.8,0,3.4,0.6,4.7,1.9c1.3,1.2,1.9,2.8,1.9,4.5v21.3c0,1.8-0.6,3.3-1.9,4.5
		c-1.3,1.2-2.9,1.9-4.7,1.9H7.2V9.8z M20.5,16.2h-4.4v21.3h4.4V16.2z"/>
	<path class="st1" d="M33.8,9.8h20v6.4H42.7v6.4h8.9v6.4h-8.9v8.5h11.1v6.4h-20V9.8z"/>
	<path class="st1" d="M56,33.2h8.9v4.3h4.4V30h-8.9c-1.2,0-2.2-0.4-3.1-1.3s-1.3-1.8-1.3-3v-9.6c0-1.8,0.6-3.3,1.9-4.5
		c1.3-1.2,2.9-1.9,4.7-1.9h8.9c1.8,0,3.4,0.6,4.7,1.9c1.3,1.2,1.9,2.8,1.9,4.5v4.3h-8.9v-4.3h-4.4v7.5h8.9c1.2,0,2.2,0.4,3.1,1.3
		s1.3,1.8,1.3,3v9.6c0,1.8-0.6,3.3-1.9,4.5c-1.3,1.2-2.9,1.9-4.7,1.9h-8.9c-1.8,0-3.4-0.6-4.7-1.9c-1.3-1.2-1.9-2.8-1.9-4.5V33.2z"
		/>
	<path class="st1" d="M87,16.2h-5.5V9.8h20v6.4h-5.5v27.7H87V16.2z"/>
	<path class="st1" d="M104.7,16.2c0-1.8,0.6-3.3,1.9-4.5c1.3-1.2,2.9-1.9,4.7-1.9h8.9c1.8,0,3.4,0.6,4.7,1.9
		c1.3,1.2,1.9,2.8,1.9,4.5v21.3c0,1.8-0.6,3.3-1.9,4.5c-1.3,1.2-2.9,1.9-4.7,1.9h-8.9c-1.8,0-3.4-0.6-4.7-1.9
		c-1.3-1.2-1.9-2.8-1.9-4.5V16.2z M118,16.2h-4.4v21.3h4.4V16.2z"/>
	<path class="st1" d="M131.3,16.2c0-1.8,0.6-3.3,1.9-4.5c1.3-1.2,2.9-1.9,4.7-1.9h8.9c1.8,0,3.4,0.6,4.7,1.9
		c1.3,1.2,1.9,2.8,1.9,4.5v6.4h-8.9v-6.4h-4.4v21.3h4.4v-6.4h8.9v6.4c0,1.8-0.6,3.3-1.9,4.5c-1.3,1.2-2.9,1.9-4.7,1.9H138
		c-1.8,0-3.4-0.6-4.7-1.9c-1.3-1.2-1.9-2.8-1.9-4.5V16.2z"/>
	<path class="st1" d="M157.9,9.8h8.9v12.8l4.4-8.5V9.8h8.9V14l-4.4,8.5c1.2,0,2.2,0.4,3.1,1.3s1.3,1.8,1.3,3v17.1h-8.9V28.9h-4.4
		v14.9h-8.9V9.8z"/>
</g>
<g>
	<path class="st1" d="M7.1,47.8h19.2v6.4H15.6v6.4h8.5V67h-8.5v8.5h10.7v6.4H7.1V47.8z"/>
	<path class="st1" d="M28.4,47.8H37v27.7h4.3V47.8h8.5v27.7c0,1.8-0.6,3.3-1.9,4.5c-1.2,1.2-2.8,1.9-4.5,1.9h-8.5
		c-1.8,0-3.3-0.6-4.5-1.9c-1.2-1.2-1.9-2.8-1.9-4.5V47.8z"/>
	<path class="st1" d="M54,47.8h14.9c1.8,0,3.3,0.6,4.5,1.9c1.2,1.2,1.9,2.8,1.9,4.5v10.7c0,1.2-0.4,2.2-1.3,3s-1.8,1.3-3,1.3
		l4.3,8.5v4.3h-8.5v-4.3l-4.3-8.5v12.8H54V47.8z M66.8,54.2h-4.3v8.5h4.3V54.2z"/>
	<path class="st1" d="M79.6,54.2c0-1.8,0.6-3.3,1.9-4.5c1.2-1.2,2.8-1.9,4.5-1.9h8.5c1.8,0,3.3,0.6,4.5,1.9c1.2,1.2,1.9,2.8,1.9,4.5
		v21.3c0,1.8-0.6,3.3-1.9,4.5c-1.2,1.2-2.8,1.9-4.5,1.9H86c-1.8,0-3.3-0.6-4.5-1.9c-1.2-1.2-1.9-2.8-1.9-4.5V54.2z M92.4,54.2h-4.3
		v21.3h4.3V54.2z"/>
	<path class="st1" d="M105.2,47.8h14.9c1.8,0,3.3,0.6,4.5,1.9c1.2,1.2,1.9,2.8,1.9,4.5v10.7c0,1.8-0.6,3.3-1.9,4.5
		c-1.2,1.2-2.8,1.9-4.5,1.9h-6.4v10.7h-8.5V47.8z M118,54.2h-4.3v10.7h4.3V54.2z"/>
	<path class="st1" d="M130.7,47.8h19.2v6.4h-10.7v6.4h8.5V67h-8.5v8.5h10.7v6.4h-19.2V47.8z"/>
</g>
<g>
	<path class="st1" d="M151.9,79.6h2.7v2.7h-2.7V79.6z"/>
	<path class="st1" d="M156,73.4c0-0.6,0.2-1.1,0.6-1.5c0.4-0.4,0.9-0.6,1.4-0.6h2.7c0.6,0,1.1,0.2,1.4,0.6c0.4,0.4,0.6,0.9,0.6,1.5
		v2h-2.7v-2h-1.4v6.8h1.4v-2h2.7v2c0,0.6-0.2,1.1-0.6,1.4c-0.4,0.4-0.9,0.6-1.4,0.6h-2.7c-0.6,0-1.1-0.2-1.4-0.6
		c-0.4-0.4-0.6-0.9-0.6-1.4V73.4z"/>
	<path class="st1" d="M164.2,73.4c0-0.6,0.2-1.1,0.6-1.5c0.4-0.4,0.9-0.6,1.5-0.6h2.7c0.6,0,1.1,0.2,1.4,0.6
		c0.4,0.4,0.6,0.9,0.6,1.5v6.8c0,0.6-0.2,1.1-0.6,1.4c-0.4,0.4-0.9,0.6-1.4,0.6h-2.7c-0.6,0-1.1-0.2-1.5-0.6
		c-0.4-0.4-0.6-0.9-0.6-1.4V73.4z M168.3,73.4h-1.4v6.8h1.4V73.4z"/>
	<path class="st1" d="M172.4,71.4h2.4l2.4,4.8l2.4-4.8h2.4v10.9h-2.7v-4.8l-2,4.1l-2-4.1v4.8h-2.7V71.4z"/>
</g>
<g>
	<path class="st1" d="M10.1,90.3c0,0,0.1,0,0.1,0.1l0.3,0.4c-0.3,0.3-0.6,0.6-1,0.7s-0.8,0.3-1.4,0.3c-0.5,0-0.9-0.1-1.3-0.2
		s-0.7-0.4-1-0.7c-0.3-0.3-0.5-0.7-0.6-1.1c-0.1-0.4-0.2-0.9-0.2-1.4c0-0.5,0.1-1,0.2-1.4c0.2-0.4,0.4-0.8,0.7-1.1
		c0.3-0.3,0.6-0.5,1-0.7S7.9,85,8.4,85c0.5,0,0.9,0.1,1.3,0.2c0.4,0.2,0.7,0.4,0.9,0.6l-0.3,0.4c0,0,0,0.1-0.1,0.1c0,0-0.1,0-0.1,0
		c0,0-0.1,0-0.1,0s-0.1-0.1-0.2-0.1c-0.1,0-0.1-0.1-0.2-0.1c-0.1,0-0.2-0.1-0.3-0.1s-0.2-0.1-0.4-0.1s-0.3,0-0.5,0
		c-0.4,0-0.7,0.1-1,0.2c-0.3,0.1-0.5,0.3-0.8,0.5c-0.2,0.2-0.4,0.5-0.5,0.8C6.1,87.6,6,87.9,6,88.3c0,0.4,0.1,0.8,0.2,1.1
		s0.3,0.6,0.5,0.8c0.2,0.2,0.4,0.4,0.7,0.5c0.3,0.1,0.6,0.2,0.9,0.2c0.2,0,0.4,0,0.5,0c0.2,0,0.3-0.1,0.4-0.1s0.3-0.1,0.4-0.2
		c0.1-0.1,0.2-0.2,0.3-0.3C10,90.3,10.1,90.3,10.1,90.3z"/>
	<path class="st1" d="M12.6,84.8v6.8h-0.8v-6.8H12.6z"/>
	<path class="st1" d="M17.4,91.6h-0.4c-0.1,0-0.1,0-0.2,0c0,0-0.1-0.1-0.1-0.2L16.7,91c-0.1,0.1-0.2,0.2-0.4,0.3
		c-0.1,0.1-0.2,0.2-0.4,0.2c-0.1,0.1-0.3,0.1-0.4,0.1c-0.1,0-0.3,0-0.5,0c-0.2,0-0.4,0-0.5-0.1c-0.2-0.1-0.3-0.1-0.4-0.2
		c-0.1-0.1-0.2-0.2-0.3-0.4c-0.1-0.2-0.1-0.3-0.1-0.6c0-0.2,0.1-0.4,0.2-0.5c0.1-0.2,0.3-0.3,0.5-0.5c0.2-0.1,0.5-0.2,0.9-0.3
		c0.4-0.1,0.8-0.1,1.3-0.1v-0.4c0-0.4-0.1-0.6-0.2-0.8c-0.2-0.2-0.4-0.3-0.7-0.3c-0.2,0-0.4,0-0.5,0.1c-0.1,0-0.3,0.1-0.4,0.2
		s-0.2,0.1-0.3,0.2C14.5,88,14.5,88,14.4,88c-0.1,0-0.1,0-0.1,0c0,0-0.1-0.1-0.1-0.1L14,87.6c0.3-0.2,0.5-0.4,0.8-0.6
		c0.3-0.1,0.6-0.2,1-0.2c0.3,0,0.5,0,0.7,0.1c0.2,0.1,0.4,0.2,0.5,0.4c0.1,0.2,0.2,0.3,0.3,0.6c0.1,0.2,0.1,0.5,0.1,0.7V91.6z
		 M15.3,91.1c0.1,0,0.3,0,0.4,0S15.9,91,16,91c0.1-0.1,0.2-0.1,0.3-0.2c0.1-0.1,0.2-0.2,0.3-0.3v-1c-0.4,0-0.7,0-1,0.1
		s-0.5,0.1-0.6,0.2s-0.3,0.2-0.4,0.3c-0.1,0.1-0.1,0.2-0.1,0.4c0,0.1,0,0.2,0.1,0.3c0,0.1,0.1,0.2,0.2,0.2c0.1,0.1,0.1,0.1,0.2,0.1
		C15.1,91.1,15.2,91.1,15.3,91.1z"/>
	<path class="st1" d="M21.3,87.7c0,0.1-0.1,0.1-0.2,0.1c0,0-0.1,0-0.2-0.1c-0.1,0-0.1-0.1-0.2-0.1c-0.1,0-0.2-0.1-0.3-0.1
		c-0.1,0-0.3-0.1-0.4-0.1c-0.1,0-0.3,0-0.4,0.1c-0.1,0-0.2,0.1-0.3,0.1s-0.1,0.1-0.2,0.2s-0.1,0.2-0.1,0.3c0,0.1,0,0.2,0.1,0.3
		c0.1,0.1,0.2,0.1,0.3,0.2s0.2,0.1,0.4,0.2c0.1,0,0.3,0.1,0.4,0.1c0.2,0.1,0.3,0.1,0.4,0.2c0.1,0.1,0.3,0.1,0.4,0.2
		c0.1,0.1,0.2,0.2,0.3,0.3c0.1,0.1,0.1,0.3,0.1,0.5c0,0.2,0,0.4-0.1,0.6s-0.2,0.3-0.3,0.5c-0.2,0.1-0.3,0.2-0.6,0.3
		c-0.2,0.1-0.5,0.1-0.8,0.1c-0.3,0-0.6-0.1-0.9-0.2c-0.3-0.1-0.5-0.2-0.7-0.4l0.2-0.3c0,0,0.1-0.1,0.1-0.1c0,0,0.1,0,0.1,0
		s0.1,0,0.2,0.1c0.1,0,0.1,0.1,0.2,0.1c0.1,0.1,0.2,0.1,0.3,0.1c0.1,0,0.3,0.1,0.5,0.1c0.2,0,0.3,0,0.4-0.1c0.1,0,0.2-0.1,0.3-0.2
		c0.1-0.1,0.1-0.2,0.2-0.2c0-0.1,0.1-0.2,0.1-0.3c0-0.1,0-0.2-0.1-0.3c-0.1-0.1-0.2-0.2-0.3-0.2c-0.1-0.1-0.2-0.1-0.4-0.2
		c-0.1,0-0.3-0.1-0.4-0.1s-0.3-0.1-0.4-0.2c-0.1-0.1-0.3-0.1-0.4-0.2c-0.1-0.1-0.2-0.2-0.3-0.4c-0.1-0.1-0.1-0.3-0.1-0.5
		c0-0.2,0-0.3,0.1-0.5c0.1-0.2,0.2-0.3,0.3-0.4s0.3-0.2,0.5-0.3c0.2-0.1,0.4-0.1,0.7-0.1c0.3,0,0.6,0,0.8,0.1s0.5,0.2,0.6,0.4
		L21.3,87.7z"/>
	<path class="st1" d="M25.3,87.7c0,0.1-0.1,0.1-0.2,0.1c0,0-0.1,0-0.2-0.1c-0.1,0-0.1-0.1-0.2-0.1c-0.1,0-0.2-0.1-0.3-0.1
		c-0.1,0-0.3-0.1-0.4-0.1c-0.1,0-0.3,0-0.4,0.1c-0.1,0-0.2,0.1-0.3,0.1s-0.1,0.1-0.2,0.2s-0.1,0.2-0.1,0.3c0,0.1,0,0.2,0.1,0.3
		c0.1,0.1,0.2,0.1,0.3,0.2s0.2,0.1,0.4,0.2c0.1,0,0.3,0.1,0.4,0.1c0.2,0.1,0.3,0.1,0.4,0.2c0.1,0.1,0.3,0.1,0.4,0.2
		c0.1,0.1,0.2,0.2,0.3,0.3c0.1,0.1,0.1,0.3,0.1,0.5c0,0.2,0,0.4-0.1,0.6s-0.2,0.3-0.3,0.5c-0.2,0.1-0.3,0.2-0.6,0.3
		c-0.2,0.1-0.5,0.1-0.8,0.1c-0.3,0-0.6-0.1-0.9-0.2c-0.3-0.1-0.5-0.2-0.7-0.4l0.2-0.3c0,0,0.1-0.1,0.1-0.1c0,0,0.1,0,0.1,0
		s0.1,0,0.2,0.1c0.1,0,0.1,0.1,0.2,0.1c0.1,0.1,0.2,0.1,0.3,0.1c0.1,0,0.3,0.1,0.5,0.1c0.2,0,0.3,0,0.4-0.1c0.1,0,0.2-0.1,0.3-0.2
		c0.1-0.1,0.1-0.2,0.2-0.2c0-0.1,0.1-0.2,0.1-0.3c0-0.1,0-0.2-0.1-0.3c-0.1-0.1-0.2-0.2-0.3-0.2c-0.1-0.1-0.2-0.1-0.4-0.2
		c-0.1,0-0.3-0.1-0.4-0.1s-0.3-0.1-0.4-0.2c-0.1-0.1-0.3-0.1-0.4-0.2c-0.1-0.1-0.2-0.2-0.3-0.4c-0.1-0.1-0.1-0.3-0.1-0.5
		c0-0.2,0-0.3,0.1-0.5c0.1-0.2,0.2-0.3,0.3-0.4s0.3-0.2,0.5-0.3c0.2-0.1,0.4-0.1,0.7-0.1c0.3,0,0.6,0,0.8,0.1s0.5,0.2,0.6,0.4
		L25.3,87.7z"/>
	<path class="st1" d="M27.8,85.5c0,0.1,0,0.2,0,0.2s-0.1,0.1-0.1,0.2S27.5,86,27.4,86c-0.1,0-0.1,0-0.2,0c-0.1,0-0.2,0-0.2,0
		s-0.1-0.1-0.2-0.1s-0.1-0.1-0.1-0.2s0-0.1,0-0.2c0-0.1,0-0.2,0-0.2c0-0.1,0.1-0.1,0.1-0.2s0.1-0.1,0.2-0.1c0.1,0,0.1,0,0.2,0
		c0.1,0,0.2,0,0.2,0c0.1,0,0.1,0.1,0.2,0.1s0.1,0.1,0.1,0.2C27.7,85.3,27.8,85.4,27.8,85.5z M27.6,87v4.7h-0.8V87H27.6z"/>
	<path class="st1" d="M29.2,91.6v-4l-0.5-0.1c-0.1,0-0.1,0-0.2-0.1s-0.1-0.1-0.1-0.1v-0.3h0.7v-0.3c0-0.3,0-0.5,0.1-0.8
		c0.1-0.2,0.2-0.4,0.4-0.6s0.4-0.3,0.7-0.4c0.3-0.1,0.6-0.1,0.9-0.1c0.1,0,0.2,0,0.4,0s0.2,0,0.3,0.1l0,0.4c0,0,0,0.1-0.1,0.1
		c0,0-0.1,0-0.1,0c0,0-0.1,0-0.1,0c0,0-0.1,0-0.1,0c-0.5,0-0.9,0.1-1.2,0.3c-0.2,0.2-0.4,0.6-0.4,1v0.2h2.8v4.6H32v-4h-2v4H29.2z"/>
	<path class="st1" d="M36.1,86.9c0.3,0,0.5,0,0.8,0.1c0.2,0.1,0.4,0.2,0.6,0.4c0.2,0.2,0.3,0.4,0.4,0.7S38,88.6,38,89
		c0,0.1,0,0.2,0,0.3c0,0-0.1,0.1-0.2,0.1h-3.1c0,0.3,0,0.5,0.1,0.8s0.2,0.4,0.3,0.5c0.1,0.1,0.3,0.3,0.5,0.3S36,91,36.2,91
		c0.2,0,0.4,0,0.5-0.1c0.1,0,0.3-0.1,0.4-0.2c0.1-0.1,0.2-0.1,0.3-0.2c0.1,0,0.1-0.1,0.2-0.1c0.1,0,0.1,0,0.2,0.1L38,91
		c-0.1,0.1-0.2,0.2-0.4,0.3c-0.1,0.1-0.3,0.2-0.5,0.2c-0.2,0.1-0.3,0.1-0.5,0.1s-0.3,0-0.5,0c-0.3,0-0.6-0.1-0.9-0.2
		c-0.3-0.1-0.5-0.3-0.7-0.5s-0.4-0.5-0.5-0.8c-0.1-0.3-0.2-0.7-0.2-1.1c0-0.3,0-0.6,0.1-0.9s0.2-0.5,0.4-0.7s0.4-0.4,0.7-0.5
		C35.5,86.9,35.8,86.9,36.1,86.9z M36.1,87.5c-0.4,0-0.7,0.1-0.9,0.3c-0.2,0.2-0.4,0.5-0.4,1h2.5c0-0.2,0-0.4-0.1-0.5
		c-0.1-0.2-0.1-0.3-0.2-0.4c-0.1-0.1-0.2-0.2-0.4-0.3C36.5,87.5,36.3,87.5,36.1,87.5z"/>
	<path class="st1" d="M42.4,91.6c-0.1,0-0.2-0.1-0.2-0.2l-0.1-0.6c-0.2,0.2-0.4,0.4-0.7,0.6c-0.3,0.1-0.5,0.2-0.9,0.2
		c-0.3,0-0.5-0.1-0.7-0.2s-0.4-0.3-0.6-0.5s-0.3-0.4-0.4-0.7c-0.1-0.3-0.1-0.6-0.1-1c0-0.3,0-0.7,0.1-1s0.2-0.6,0.4-0.8
		s0.4-0.4,0.6-0.5c0.2-0.1,0.5-0.2,0.8-0.2c0.3,0,0.5,0,0.7,0.1c0.2,0.1,0.4,0.2,0.5,0.4v-2.6h0.8v6.8H42.4z M40.8,91
		c0.3,0,0.5-0.1,0.7-0.2c0.2-0.1,0.4-0.3,0.6-0.5v-2.3c-0.2-0.2-0.3-0.3-0.5-0.4c-0.2-0.1-0.4-0.1-0.6-0.1c-0.4,0-0.8,0.2-1,0.5
		c-0.2,0.3-0.3,0.8-0.3,1.3c0,0.3,0,0.6,0.1,0.8s0.1,0.4,0.2,0.5c0.1,0.1,0.2,0.2,0.4,0.3S40.6,91,40.8,91z"/>
	<path class="st1" d="M46.9,87.7c0,0.1-0.1,0.1-0.2,0.1c0,0-0.1,0-0.2-0.1c-0.1,0-0.1-0.1-0.2-0.1c-0.1,0-0.2-0.1-0.3-0.1
		c-0.1,0-0.3-0.1-0.4-0.1c-0.1,0-0.3,0-0.4,0.1c-0.1,0-0.2,0.1-0.3,0.1s-0.1,0.1-0.2,0.2s-0.1,0.2-0.1,0.3c0,0.1,0,0.2,0.1,0.3
		c0.1,0.1,0.2,0.1,0.3,0.2s0.2,0.1,0.4,0.2c0.1,0,0.3,0.1,0.4,0.1c0.2,0.1,0.3,0.1,0.4,0.2c0.1,0.1,0.3,0.1,0.4,0.2
		c0.1,0.1,0.2,0.2,0.3,0.3c0.1,0.1,0.1,0.3,0.1,0.5c0,0.2,0,0.4-0.1,0.6s-0.2,0.3-0.3,0.5c-0.2,0.1-0.3,0.2-0.6,0.3
		c-0.2,0.1-0.5,0.1-0.8,0.1c-0.3,0-0.6-0.1-0.9-0.2c-0.3-0.1-0.5-0.2-0.7-0.4l0.2-0.3c0,0,0.1-0.1,0.1-0.1c0,0,0.1,0,0.1,0
		s0.1,0,0.2,0.1c0.1,0,0.1,0.1,0.2,0.1C44.7,91,44.8,91,45,91c0.1,0,0.3,0.1,0.5,0.1c0.2,0,0.3,0,0.4-0.1c0.1,0,0.2-0.1,0.3-0.2
		c0.1-0.1,0.1-0.2,0.2-0.2c0-0.1,0.1-0.2,0.1-0.3c0-0.1,0-0.2-0.1-0.3c-0.1-0.1-0.2-0.2-0.3-0.2c-0.1-0.1-0.2-0.1-0.4-0.2
		c-0.1,0-0.3-0.1-0.4-0.1s-0.3-0.1-0.4-0.2c-0.1-0.1-0.3-0.1-0.4-0.2c-0.1-0.1-0.2-0.2-0.3-0.4C44,88.6,44,88.4,44,88.2
		c0-0.2,0-0.3,0.1-0.5c0.1-0.2,0.2-0.3,0.3-0.4s0.3-0.2,0.5-0.3c0.2-0.1,0.4-0.1,0.7-0.1c0.3,0,0.6,0,0.8,0.1s0.5,0.2,0.6,0.4
		L46.9,87.7z"/>
	<path class="st1" d="M53.3,91.6c-0.1,0-0.2-0.1-0.2-0.2L53,90.9c-0.2,0.2-0.4,0.4-0.7,0.6c-0.3,0.1-0.5,0.2-0.9,0.2
		c-0.3,0-0.5-0.1-0.7-0.2s-0.4-0.3-0.6-0.5s-0.3-0.4-0.4-0.7c-0.1-0.3-0.1-0.6-0.1-1c0-0.3,0-0.7,0.1-1s0.2-0.6,0.4-0.8
		s0.4-0.4,0.6-0.5c0.2-0.1,0.5-0.2,0.8-0.2c0.3,0,0.5,0,0.7,0.1c0.2,0.1,0.4,0.2,0.5,0.4v-2.6h0.8v6.8H53.3z M51.7,91
		c0.3,0,0.5-0.1,0.7-0.2c0.2-0.1,0.4-0.3,0.6-0.5v-2.3c-0.2-0.2-0.3-0.3-0.5-0.4c-0.2-0.1-0.4-0.1-0.6-0.1c-0.4,0-0.8,0.2-1,0.5
		c-0.2,0.3-0.3,0.8-0.3,1.3c0,0.3,0,0.6,0.1,0.8s0.1,0.4,0.2,0.5c0.1,0.1,0.2,0.2,0.4,0.3S51.5,91,51.7,91z"/>
	<path class="st1" d="M57,86.9c0.3,0,0.5,0,0.8,0.1c0.2,0.1,0.4,0.2,0.6,0.4c0.2,0.2,0.3,0.4,0.4,0.7s0.1,0.6,0.1,0.9
		c0,0.1,0,0.2,0,0.3c0,0-0.1,0.1-0.2,0.1h-3.1c0,0.3,0,0.5,0.1,0.8s0.2,0.4,0.3,0.5c0.1,0.1,0.3,0.3,0.5,0.3s0.4,0.1,0.6,0.1
		c0.2,0,0.4,0,0.5-0.1c0.1,0,0.3-0.1,0.4-0.2c0.1-0.1,0.2-0.1,0.3-0.2c0.1,0,0.1-0.1,0.2-0.1c0.1,0,0.1,0,0.2,0.1l0.2,0.3
		c-0.1,0.1-0.2,0.2-0.4,0.3c-0.1,0.1-0.3,0.2-0.5,0.2c-0.2,0.1-0.3,0.1-0.5,0.1s-0.3,0-0.5,0c-0.3,0-0.6-0.1-0.9-0.2
		c-0.3-0.1-0.5-0.3-0.7-0.5s-0.4-0.5-0.5-0.8c-0.1-0.3-0.2-0.7-0.2-1.1c0-0.3,0-0.6,0.1-0.9s0.2-0.5,0.4-0.7s0.4-0.4,0.7-0.5
		C56.3,86.9,56.6,86.9,57,86.9z M57,87.5c-0.4,0-0.7,0.1-0.9,0.3c-0.2,0.2-0.4,0.5-0.4,1h2.5c0-0.2,0-0.4-0.1-0.5
		c-0.1-0.2-0.1-0.3-0.2-0.4c-0.1-0.1-0.2-0.2-0.4-0.3C57.4,87.5,57.2,87.5,57,87.5z"/>
	<path class="st1" d="M62.6,87.7c0,0.1-0.1,0.1-0.2,0.1c0,0-0.1,0-0.2-0.1c-0.1,0-0.1-0.1-0.2-0.1c-0.1,0-0.2-0.1-0.3-0.1
		c-0.1,0-0.3-0.1-0.4-0.1c-0.1,0-0.3,0-0.4,0.1c-0.1,0-0.2,0.1-0.3,0.1s-0.1,0.1-0.2,0.2s-0.1,0.2-0.1,0.3c0,0.1,0,0.2,0.1,0.3
		c0.1,0.1,0.2,0.1,0.3,0.2s0.2,0.1,0.4,0.2c0.1,0,0.3,0.1,0.4,0.1c0.2,0.1,0.3,0.1,0.4,0.2c0.1,0.1,0.3,0.1,0.4,0.2
		c0.1,0.1,0.2,0.2,0.3,0.3c0.1,0.1,0.1,0.3,0.1,0.5c0,0.2,0,0.4-0.1,0.6s-0.2,0.3-0.3,0.5c-0.2,0.1-0.3,0.2-0.6,0.3
		c-0.2,0.1-0.5,0.1-0.8,0.1c-0.3,0-0.6-0.1-0.9-0.2c-0.3-0.1-0.5-0.2-0.7-0.4l0.2-0.3c0,0,0.1-0.1,0.1-0.1c0,0,0.1,0,0.1,0
		s0.1,0,0.2,0.1c0.1,0,0.1,0.1,0.2,0.1c0.1,0.1,0.2,0.1,0.3,0.1c0.1,0,0.3,0.1,0.5,0.1c0.2,0,0.3,0,0.4-0.1c0.1,0,0.2-0.1,0.3-0.2
		c0.1-0.1,0.1-0.2,0.2-0.2c0-0.1,0.1-0.2,0.1-0.3c0-0.1,0-0.2-0.1-0.3c-0.1-0.1-0.2-0.2-0.3-0.2c-0.1-0.1-0.2-0.1-0.4-0.2
		c-0.1,0-0.3-0.1-0.4-0.1s-0.3-0.1-0.4-0.2c-0.1-0.1-0.3-0.1-0.4-0.2c-0.1-0.1-0.2-0.2-0.3-0.4c-0.1-0.1-0.1-0.3-0.1-0.5
		c0-0.2,0-0.3,0.1-0.5c0.1-0.2,0.2-0.3,0.3-0.4s0.3-0.2,0.5-0.3c0.2-0.1,0.4-0.1,0.7-0.1c0.3,0,0.6,0,0.8,0.1s0.5,0.2,0.6,0.4
		L62.6,87.7z"/>
	<path class="st1" d="M65.4,91.7c-0.4,0-0.7-0.1-0.8-0.3c-0.2-0.2-0.3-0.5-0.3-0.9v-2.9h-0.6c0,0-0.1,0-0.1,0c0,0-0.1-0.1-0.1-0.1
		v-0.3l0.8-0.1l0.2-1.4c0,0,0-0.1,0.1-0.1c0,0,0.1,0,0.1,0H65v1.6h1.3v0.6H65v2.8c0,0.2,0,0.3,0.1,0.4c0.1,0.1,0.2,0.1,0.4,0.1
		c0.1,0,0.2,0,0.2,0c0.1,0,0.1,0,0.2-0.1c0,0,0.1-0.1,0.1-0.1c0,0,0.1,0,0.1,0c0,0,0.1,0,0.1,0.1l0.2,0.4c-0.1,0.1-0.3,0.2-0.5,0.3
		S65.6,91.7,65.4,91.7z"/>
	<path class="st1" d="M69.3,86.9c0.3,0,0.6,0.1,0.9,0.2s0.5,0.3,0.7,0.5c0.2,0.2,0.3,0.5,0.4,0.8c0.1,0.3,0.2,0.6,0.2,1
		c0,0.4-0.1,0.7-0.2,1c-0.1,0.3-0.3,0.5-0.4,0.8c-0.2,0.2-0.4,0.4-0.7,0.5s-0.6,0.2-0.9,0.2s-0.6-0.1-0.9-0.2s-0.5-0.3-0.7-0.5
		c-0.2-0.2-0.3-0.5-0.4-0.8c-0.1-0.3-0.2-0.6-0.2-1c0-0.4,0.1-0.7,0.2-1c0.1-0.3,0.3-0.5,0.4-0.8c0.2-0.2,0.4-0.4,0.7-0.5
		S68.9,86.9,69.3,86.9z M69.3,91c0.5,0,0.8-0.2,1-0.5c0.2-0.3,0.3-0.7,0.3-1.3c0-0.6-0.1-1-0.3-1.3s-0.6-0.5-1-0.5
		c-0.2,0-0.4,0-0.6,0.1c-0.2,0.1-0.3,0.2-0.4,0.3c-0.1,0.2-0.2,0.3-0.3,0.6c-0.1,0.2-0.1,0.5-0.1,0.7c0,0.3,0,0.5,0.1,0.7
		s0.1,0.4,0.3,0.5c0.1,0.1,0.3,0.3,0.4,0.3C68.8,91,69,91,69.3,91z"/>
	<path class="st1" d="M75.7,87.8C75.7,87.8,75.6,87.9,75.7,87.8c-0.1,0.1-0.1,0.1-0.2,0.1s-0.1,0-0.1-0.1c-0.1,0-0.1-0.1-0.2-0.1
		c-0.1,0-0.2-0.1-0.3-0.1c-0.1,0-0.3-0.1-0.4-0.1c-0.2,0-0.4,0-0.6,0.1c-0.2,0.1-0.3,0.2-0.4,0.4s-0.2,0.3-0.3,0.6
		C73,88.8,73,89,73,89.3c0,0.3,0,0.5,0.1,0.8s0.2,0.4,0.3,0.6c0.1,0.1,0.3,0.3,0.4,0.3s0.4,0.1,0.6,0.1c0.2,0,0.4,0,0.5-0.1
		c0.1,0,0.2-0.1,0.3-0.2c0.1-0.1,0.2-0.1,0.2-0.2s0.1-0.1,0.2-0.1c0.1,0,0.1,0,0.2,0.1l0.2,0.3c-0.2,0.2-0.5,0.4-0.8,0.5
		c-0.3,0.1-0.6,0.2-1,0.2c-0.3,0-0.6-0.1-0.8-0.2c-0.2-0.1-0.5-0.3-0.7-0.5c-0.2-0.2-0.3-0.5-0.4-0.8c-0.1-0.3-0.2-0.6-0.2-1
		c0-0.3,0-0.7,0.1-1c0.1-0.3,0.2-0.5,0.4-0.8s0.4-0.4,0.7-0.5c0.3-0.1,0.6-0.2,0.9-0.2c0.3,0,0.6,0.1,0.9,0.2
		c0.3,0.1,0.5,0.3,0.7,0.4L75.7,87.8z"/>
	<path class="st1" d="M77.6,84.8v4h0.2c0.1,0,0.1,0,0.2,0c0,0,0.1-0.1,0.1-0.1l1.5-1.6c0,0,0.1-0.1,0.1-0.1c0,0,0.1,0,0.2,0h0.7
		L79,88.8c0,0.1-0.1,0.1-0.1,0.1S78.8,89,78.7,89c0.1,0,0.1,0.1,0.1,0.1c0,0,0.1,0.1,0.1,0.2l1.8,2.3h-0.7c-0.1,0-0.1,0-0.2,0
		c0,0-0.1-0.1-0.1-0.1l-1.5-1.9c0-0.1-0.1-0.1-0.1-0.1c0,0-0.1,0-0.2,0h-0.2v2.2h-0.8v-6.8H77.6z"/>
	<path class="st1" d="M82.7,85.5c0,0.1,0,0.2,0,0.2s-0.1,0.1-0.1,0.2S82.4,86,82.3,86c-0.1,0-0.1,0-0.2,0c-0.1,0-0.2,0-0.2,0
		s-0.1-0.1-0.2-0.1s-0.1-0.1-0.1-0.2s0-0.1,0-0.2c0-0.1,0-0.2,0-0.2c0-0.1,0.1-0.1,0.1-0.2s0.1-0.1,0.2-0.1c0.1,0,0.1,0,0.2,0
		c0.1,0,0.2,0,0.2,0c0.1,0,0.1,0.1,0.2,0.1s0.1,0.1,0.1,0.2C82.7,85.3,82.7,85.4,82.7,85.5z M82.5,87v4.7h-0.8V87H82.5z"/>
	<path class="st1" d="M84,91.6V87h0.5c0.1,0,0.2,0.1,0.2,0.2l0.1,0.5c0.2-0.2,0.4-0.4,0.7-0.5s0.5-0.2,0.9-0.2c0.3,0,0.5,0,0.7,0.1
		c0.2,0.1,0.4,0.2,0.5,0.4s0.2,0.3,0.3,0.6s0.1,0.5,0.1,0.7v3H87v-3c0-0.4-0.1-0.6-0.2-0.8c-0.2-0.2-0.4-0.3-0.7-0.3
		c-0.2,0-0.5,0.1-0.7,0.2S85,88,84.8,88.2v3.4H84z"/>
	<path class="st1" d="M90.7,86.9c0.2,0,0.4,0,0.6,0.1c0.2,0,0.3,0.1,0.5,0.2H93v0.3c0,0.1-0.1,0.2-0.2,0.2l-0.5,0.1
		c0.1,0.2,0.2,0.4,0.2,0.7c0,0.2,0,0.4-0.1,0.6s-0.2,0.3-0.4,0.5s-0.3,0.2-0.6,0.3c-0.2,0.1-0.4,0.1-0.7,0.1c-0.2,0-0.4,0-0.6-0.1
		c-0.1,0.1-0.2,0.1-0.2,0.2c-0.1,0.1-0.1,0.1-0.1,0.2c0,0.1,0,0.2,0.1,0.3s0.2,0.1,0.4,0.1c0.1,0,0.3,0,0.5,0s0.4,0,0.6,0
		c0.2,0,0.4,0,0.6,0.1s0.4,0.1,0.5,0.2c0.1,0.1,0.3,0.2,0.4,0.3c0.1,0.1,0.1,0.3,0.1,0.5c0,0.2,0,0.4-0.1,0.6
		c-0.1,0.2-0.2,0.4-0.4,0.5s-0.4,0.3-0.7,0.4c-0.3,0.1-0.6,0.1-0.9,0.1c-0.3,0-0.6,0-0.9-0.1c-0.3-0.1-0.5-0.2-0.6-0.3
		c-0.2-0.1-0.3-0.2-0.4-0.4c-0.1-0.1-0.1-0.3-0.1-0.5c0-0.2,0.1-0.4,0.2-0.6c0.1-0.2,0.3-0.3,0.6-0.4c-0.1-0.1-0.2-0.1-0.3-0.2
		c-0.1-0.1-0.1-0.2-0.1-0.4c0-0.1,0-0.1,0-0.2c0-0.1,0.1-0.1,0.1-0.2c0.1-0.1,0.1-0.1,0.2-0.2c0.1-0.1,0.2-0.1,0.3-0.2
		c-0.2-0.1-0.4-0.3-0.5-0.5c-0.1-0.2-0.2-0.5-0.2-0.7c0-0.2,0-0.4,0.1-0.6s0.2-0.3,0.4-0.5c0.2-0.1,0.3-0.2,0.6-0.3
		C90.2,86.9,90.4,86.9,90.7,86.9z M92.1,91.9c0-0.1,0-0.2-0.1-0.3s-0.2-0.1-0.3-0.2c-0.1,0-0.2-0.1-0.4-0.1c-0.1,0-0.3,0-0.5,0
		c-0.2,0-0.3,0-0.5,0s-0.3,0-0.5-0.1c-0.2,0.1-0.3,0.2-0.4,0.3c-0.1,0.1-0.2,0.3-0.2,0.4c0,0.1,0,0.2,0.1,0.3
		c0.1,0.1,0.1,0.2,0.2,0.2c0.1,0.1,0.2,0.1,0.4,0.2s0.4,0.1,0.6,0.1c0.2,0,0.4,0,0.6-0.1c0.2,0,0.3-0.1,0.4-0.2s0.2-0.2,0.3-0.3
		S92.1,92,92.1,91.9z M90.7,89.3c0.2,0,0.3,0,0.4-0.1c0.1,0,0.2-0.1,0.3-0.2s0.2-0.2,0.2-0.3s0.1-0.2,0.1-0.4c0-0.3-0.1-0.5-0.3-0.7
		c-0.2-0.2-0.4-0.3-0.8-0.3c-0.3,0-0.6,0.1-0.8,0.3c-0.2,0.2-0.3,0.4-0.3,0.7c0,0.1,0,0.3,0.1,0.4s0.1,0.2,0.2,0.3s0.2,0.1,0.3,0.2
		C90.3,89.3,90.5,89.3,90.7,89.3z"/>
	<path class="st1" d="M99.8,85v0.7h-3.2v2.2h2.6v0.7h-2.6v2.3h3.2v0.7h-4.1V85H99.8z"/>
	<path class="st1" d="M101.6,87v3c0,0.4,0.1,0.6,0.2,0.8c0.2,0.2,0.4,0.3,0.7,0.3c0.2,0,0.5-0.1,0.7-0.2c0.2-0.1,0.4-0.3,0.6-0.5V87
		h0.8v4.7h-0.5c-0.1,0-0.2-0.1-0.2-0.2l-0.1-0.5c-0.2,0.2-0.4,0.4-0.7,0.5c-0.3,0.1-0.5,0.2-0.9,0.2c-0.3,0-0.5,0-0.7-0.1
		c-0.2-0.1-0.4-0.2-0.5-0.4c-0.1-0.2-0.2-0.3-0.3-0.6s-0.1-0.5-0.1-0.7v-3H101.6z"/>
	<path class="st1" d="M106,91.6V87h0.5c0.1,0,0.2,0,0.2,0.1c0,0,0.1,0.1,0.1,0.2l0.1,0.7c0.2-0.3,0.4-0.6,0.6-0.8s0.5-0.3,0.8-0.3
		c0.1,0,0.2,0,0.3,0c0.1,0,0.2,0.1,0.3,0.1l-0.1,0.6c0,0.1-0.1,0.1-0.1,0.1c0,0-0.1,0-0.2,0s-0.2,0-0.4,0c-0.3,0-0.5,0.1-0.7,0.2
		c-0.2,0.2-0.4,0.4-0.5,0.7v3H106z"/>
	<path class="st1" d="M111.6,86.9c0.3,0,0.6,0.1,0.9,0.2s0.5,0.3,0.7,0.5c0.2,0.2,0.3,0.5,0.4,0.8c0.1,0.3,0.2,0.6,0.2,1
		c0,0.4-0.1,0.7-0.2,1c-0.1,0.3-0.3,0.5-0.4,0.8c-0.2,0.2-0.4,0.4-0.7,0.5s-0.6,0.2-0.9,0.2s-0.6-0.1-0.9-0.2
		c-0.3-0.1-0.5-0.3-0.7-0.5c-0.2-0.2-0.3-0.5-0.4-0.8c-0.1-0.3-0.2-0.6-0.2-1c0-0.4,0.1-0.7,0.2-1c0.1-0.3,0.3-0.5,0.4-0.8
		c0.2-0.2,0.4-0.4,0.7-0.5C111,86.9,111.3,86.9,111.6,86.9z M111.6,91c0.5,0,0.8-0.2,1-0.5c0.2-0.3,0.3-0.7,0.3-1.3
		c0-0.6-0.1-1-0.3-1.3s-0.6-0.5-1-0.5c-0.2,0-0.4,0-0.6,0.1s-0.3,0.2-0.4,0.3s-0.2,0.3-0.3,0.6c-0.1,0.2-0.1,0.5-0.1,0.7
		c0,0.3,0,0.5,0.1,0.7s0.1,0.4,0.3,0.5s0.3,0.3,0.4,0.3C111.2,91,111.4,91,111.6,91z"/>
	<path class="st1" d="M114.8,93.2V87h0.5c0.1,0,0.2,0.1,0.2,0.2l0.1,0.6c0.2-0.2,0.4-0.4,0.7-0.6c0.3-0.1,0.6-0.2,0.9-0.2
		c0.3,0,0.5,0.1,0.7,0.2c0.2,0.1,0.4,0.3,0.6,0.5c0.2,0.2,0.3,0.5,0.4,0.7c0.1,0.3,0.1,0.6,0.1,1c0,0.3,0,0.7-0.1,1
		s-0.2,0.6-0.4,0.8c-0.2,0.2-0.4,0.4-0.6,0.5s-0.5,0.2-0.8,0.2c-0.3,0-0.5,0-0.7-0.1c-0.2-0.1-0.4-0.2-0.5-0.4v2.1H114.8z
		 M116.9,87.5c-0.3,0-0.5,0.1-0.7,0.2c-0.2,0.1-0.4,0.3-0.6,0.5v2.3c0.2,0.2,0.3,0.3,0.5,0.4c0.2,0.1,0.4,0.1,0.6,0.1
		c0.4,0,0.8-0.2,1-0.5c0.2-0.3,0.3-0.8,0.3-1.3c0-0.3,0-0.6-0.1-0.8s-0.1-0.4-0.2-0.5s-0.2-0.2-0.4-0.3
		C117.3,87.6,117.1,87.5,116.9,87.5z"/>
	<path class="st1" d="M121.8,86.9c0.3,0,0.5,0,0.8,0.1c0.2,0.1,0.4,0.2,0.6,0.4c0.2,0.2,0.3,0.4,0.4,0.7c0.1,0.3,0.1,0.6,0.1,0.9
		c0,0.1,0,0.2,0,0.3c0,0-0.1,0.1-0.2,0.1h-3.1c0,0.3,0,0.5,0.1,0.8s0.2,0.4,0.3,0.5c0.1,0.1,0.3,0.3,0.5,0.3s0.4,0.1,0.6,0.1
		c0.2,0,0.4,0,0.5-0.1c0.1,0,0.3-0.1,0.4-0.2c0.1-0.1,0.2-0.1,0.3-0.2s0.1-0.1,0.2-0.1c0.1,0,0.1,0,0.2,0.1l0.2,0.3
		c-0.1,0.1-0.2,0.2-0.4,0.3c-0.1,0.1-0.3,0.2-0.5,0.2c-0.2,0.1-0.3,0.1-0.5,0.1c-0.2,0-0.3,0-0.5,0c-0.3,0-0.6-0.1-0.9-0.2
		c-0.3-0.1-0.5-0.3-0.7-0.5c-0.2-0.2-0.4-0.5-0.5-0.8c-0.1-0.3-0.2-0.7-0.2-1.1c0-0.3,0-0.6,0.1-0.9s0.2-0.5,0.4-0.7
		s0.4-0.4,0.7-0.5S121.4,86.9,121.8,86.9z M121.8,87.5c-0.4,0-0.7,0.1-0.9,0.3c-0.2,0.2-0.4,0.5-0.4,1h2.5c0-0.2,0-0.4-0.1-0.5
		c-0.1-0.2-0.1-0.3-0.2-0.4c-0.1-0.1-0.2-0.2-0.4-0.3C122.1,87.5,122,87.5,121.8,87.5z"/>
	<path class="st1" d="M126.7,91.6v-4l-0.5-0.1c-0.1,0-0.1,0-0.2-0.1s-0.1-0.1-0.1-0.1v-0.3h0.7v-0.5c0-0.3,0-0.5,0.1-0.7
		c0.1-0.2,0.2-0.4,0.3-0.5s0.3-0.3,0.5-0.3s0.4-0.1,0.7-0.1c0.2,0,0.4,0,0.6,0.1l0,0.4c0,0.1,0,0.1-0.1,0.1c0,0-0.1,0-0.2,0h-0.1
		c-0.1,0-0.3,0-0.4,0.1c-0.1,0-0.2,0.1-0.3,0.2c-0.1,0.1-0.1,0.2-0.2,0.3c0,0.1-0.1,0.3-0.1,0.5v0.4h1.3v0.6h-1.3v4H126.7z"/>
	<path class="st1" d="M129.6,91.6V87h0.5c0.1,0,0.2,0,0.2,0.1c0,0,0.1,0.1,0.1,0.2l0.1,0.7c0.2-0.3,0.4-0.6,0.6-0.8s0.5-0.3,0.8-0.3
		c0.1,0,0.2,0,0.3,0c0.1,0,0.2,0.1,0.3,0.1l-0.1,0.6c0,0.1-0.1,0.1-0.1,0.1c0,0-0.1,0-0.2,0s-0.2,0-0.4,0c-0.3,0-0.5,0.1-0.7,0.2
		c-0.2,0.2-0.4,0.4-0.5,0.7v3H129.6z"/>
	<path class="st1" d="M135.2,86.9c0.3,0,0.6,0.1,0.9,0.2s0.5,0.3,0.7,0.5c0.2,0.2,0.3,0.5,0.4,0.8c0.1,0.3,0.2,0.6,0.2,1
		c0,0.4-0.1,0.7-0.2,1c-0.1,0.3-0.3,0.5-0.4,0.8c-0.2,0.2-0.4,0.4-0.7,0.5s-0.6,0.2-0.9,0.2s-0.6-0.1-0.9-0.2
		c-0.3-0.1-0.5-0.3-0.7-0.5c-0.2-0.2-0.3-0.5-0.4-0.8c-0.1-0.3-0.2-0.6-0.2-1c0-0.4,0.1-0.7,0.2-1c0.1-0.3,0.3-0.5,0.4-0.8
		c0.2-0.2,0.4-0.4,0.7-0.5C134.6,86.9,134.9,86.9,135.2,86.9z M135.2,91c0.5,0,0.8-0.2,1-0.5c0.2-0.3,0.3-0.7,0.3-1.3
		c0-0.6-0.1-1-0.3-1.3s-0.6-0.5-1-0.5c-0.2,0-0.4,0-0.6,0.1s-0.3,0.2-0.4,0.3s-0.2,0.3-0.3,0.6c-0.1,0.2-0.1,0.5-0.1,0.7
		c0,0.3,0,0.5,0.1,0.7s0.1,0.4,0.3,0.5s0.3,0.3,0.4,0.3C134.8,91,135,91,135.2,91z"/>
	<path class="st1" d="M138.4,91.6V87h0.5c0.1,0,0.2,0.1,0.2,0.2l0.1,0.5c0.2-0.2,0.4-0.4,0.6-0.5c0.2-0.1,0.5-0.2,0.7-0.2
		c0.3,0,0.6,0.1,0.8,0.3c0.2,0.2,0.3,0.4,0.4,0.7c0.1-0.2,0.1-0.3,0.3-0.4c0.1-0.1,0.2-0.2,0.4-0.3c0.1-0.1,0.3-0.1,0.4-0.2
		c0.1,0,0.3-0.1,0.5-0.1c0.2,0,0.5,0,0.7,0.1s0.4,0.2,0.5,0.3c0.1,0.2,0.2,0.3,0.3,0.6c0.1,0.2,0.1,0.5,0.1,0.8v3h-0.8v-3
		c0-0.4-0.1-0.6-0.2-0.8c-0.2-0.2-0.4-0.3-0.7-0.3c-0.1,0-0.3,0-0.4,0.1s-0.2,0.1-0.3,0.2s-0.2,0.2-0.2,0.3s-0.1,0.3-0.1,0.5v3h-0.8
		v-3c0-0.4-0.1-0.7-0.2-0.8c-0.2-0.2-0.4-0.3-0.7-0.3c-0.2,0-0.4,0.1-0.6,0.2c-0.2,0.1-0.3,0.3-0.5,0.4v3.5H138.4z"/>
	<path class="st1" d="M148.9,89.2v2.5H148V85h1.9c0.4,0,0.8,0,1.1,0.1c0.3,0.1,0.6,0.2,0.8,0.4c0.2,0.2,0.4,0.4,0.5,0.6
		c0.1,0.3,0.1,0.5,0.1,0.8c0,0.3-0.1,0.6-0.2,0.8c-0.1,0.3-0.3,0.5-0.5,0.7s-0.5,0.3-0.8,0.4c-0.3,0.1-0.7,0.2-1.1,0.2H148.9z
		 M148.9,88.4h1.1c0.3,0,0.5,0,0.7-0.1c0.2-0.1,0.4-0.2,0.5-0.3c0.1-0.1,0.2-0.3,0.3-0.4c0.1-0.2,0.1-0.4,0.1-0.6
		c0-0.4-0.1-0.7-0.4-1c-0.3-0.2-0.7-0.4-1.2-0.4h-1.1V88.4z"/>
	<path class="st1" d="M153.4,91.6V87h0.5c0.1,0,0.2,0,0.2,0.1c0,0,0.1,0.1,0.1,0.2l0.1,0.7c0.2-0.3,0.4-0.6,0.6-0.8s0.5-0.3,0.8-0.3
		c0.1,0,0.2,0,0.3,0c0.1,0,0.2,0.1,0.3,0.1l-0.1,0.6c0,0.1-0.1,0.1-0.1,0.1c0,0-0.1,0-0.2,0s-0.2,0-0.4,0c-0.3,0-0.5,0.1-0.7,0.2
		c-0.2,0.2-0.4,0.4-0.5,0.7v3H153.4z"/>
	<path class="st1" d="M159,86.9c0.3,0,0.6,0.1,0.9,0.2s0.5,0.3,0.7,0.5c0.2,0.2,0.3,0.5,0.4,0.8c0.1,0.3,0.2,0.6,0.2,1
		c0,0.4-0.1,0.7-0.2,1c-0.1,0.3-0.3,0.5-0.4,0.8c-0.2,0.2-0.4,0.4-0.7,0.5s-0.6,0.2-0.9,0.2s-0.6-0.1-0.9-0.2
		c-0.3-0.1-0.5-0.3-0.7-0.5c-0.2-0.2-0.3-0.5-0.4-0.8c-0.1-0.3-0.2-0.6-0.2-1c0-0.4,0.1-0.7,0.2-1c0.1-0.3,0.3-0.5,0.4-0.8
		c0.2-0.2,0.4-0.4,0.7-0.5C158.3,86.9,158.6,86.9,159,86.9z M159,91c0.5,0,0.8-0.2,1-0.5c0.2-0.3,0.3-0.7,0.3-1.3
		c0-0.6-0.1-1-0.3-1.3s-0.6-0.5-1-0.5c-0.2,0-0.4,0-0.6,0.1s-0.3,0.2-0.4,0.3s-0.2,0.3-0.3,0.6c-0.1,0.2-0.1,0.5-0.1,0.7
		c0,0.3,0,0.5,0.1,0.7s0.1,0.4,0.3,0.5s0.3,0.3,0.4,0.3C158.6,91,158.8,91,159,91z"/>
	<path class="st1" d="M165.4,91.7c-0.4,0-0.7-0.1-0.8-0.3c-0.2-0.2-0.3-0.5-0.3-0.9v-2.9h-0.6c0,0-0.1,0-0.1,0c0,0-0.1-0.1-0.1-0.1
		v-0.3l0.8-0.1l0.2-1.4c0,0,0-0.1,0.1-0.1c0,0,0.1,0,0.1,0h0.4v1.6h1.3v0.6h-1.3v2.8c0,0.2,0,0.3,0.1,0.4c0.1,0.1,0.2,0.1,0.4,0.1
		c0.1,0,0.2,0,0.2,0c0.1,0,0.1,0,0.2-0.1c0,0,0.1-0.1,0.1-0.1c0,0,0.1,0,0.1,0c0,0,0.1,0,0.1,0.1l0.2,0.4c-0.1,0.1-0.3,0.2-0.5,0.3
		S165.6,91.7,165.4,91.7z"/>
	<path class="st1" d="M169.3,86.9c0.3,0,0.6,0.1,0.9,0.2s0.5,0.3,0.7,0.5c0.2,0.2,0.3,0.5,0.4,0.8c0.1,0.3,0.2,0.6,0.2,1
		c0,0.4-0.1,0.7-0.2,1c-0.1,0.3-0.3,0.5-0.4,0.8c-0.2,0.2-0.4,0.4-0.7,0.5s-0.6,0.2-0.9,0.2s-0.6-0.1-0.9-0.2
		c-0.3-0.1-0.5-0.3-0.7-0.5c-0.2-0.2-0.3-0.5-0.4-0.8c-0.1-0.3-0.2-0.6-0.2-1c0-0.4,0.1-0.7,0.2-1c0.1-0.3,0.3-0.5,0.4-0.8
		c0.2-0.2,0.4-0.4,0.7-0.5C168.7,86.9,169,86.9,169.3,86.9z M169.3,91c0.5,0,0.8-0.2,1-0.5c0.2-0.3,0.3-0.7,0.3-1.3
		c0-0.6-0.1-1-0.3-1.3s-0.6-0.5-1-0.5c-0.2,0-0.4,0-0.6,0.1s-0.3,0.2-0.4,0.3s-0.2,0.3-0.3,0.6c-0.1,0.2-0.1,0.5-0.1,0.7
		c0,0.3,0,0.5,0.1,0.7s0.1,0.4,0.3,0.5s0.3,0.3,0.4,0.3C168.9,91,169.1,91,169.3,91z"/>
	<path class="st1" d="M175.4,89.2v2.5h-0.9V85h1.9c0.4,0,0.8,0,1.1,0.1c0.3,0.1,0.6,0.2,0.8,0.4c0.2,0.2,0.4,0.4,0.5,0.6
		c0.1,0.3,0.1,0.5,0.1,0.8c0,0.3-0.1,0.6-0.2,0.8c-0.1,0.3-0.3,0.5-0.5,0.7s-0.5,0.3-0.8,0.4c-0.3,0.1-0.7,0.2-1.1,0.2H175.4z
		 M175.4,88.4h1.1c0.3,0,0.5,0,0.7-0.1c0.2-0.1,0.4-0.2,0.5-0.3c0.1-0.1,0.2-0.3,0.3-0.4c0.1-0.2,0.1-0.4,0.1-0.6
		c0-0.4-0.1-0.7-0.4-1c-0.3-0.2-0.7-0.4-1.2-0.4h-1.1V88.4z"/>
	<path class="st1" d="M179.9,91.6V87h0.5c0.1,0,0.2,0,0.2,0.1c0,0,0.1,0.1,0.1,0.2l0.1,0.7c0.2-0.3,0.4-0.6,0.6-0.8s0.5-0.3,0.8-0.3
		c0.1,0,0.2,0,0.3,0c0.1,0,0.2,0.1,0.3,0.1l-0.1,0.6c0,0.1-0.1,0.1-0.1,0.1c0,0-0.1,0-0.2,0s-0.2,0-0.4,0c-0.3,0-0.5,0.1-0.7,0.2
		c-0.2,0.2-0.4,0.4-0.5,0.7v3H179.9z"/>
	<path class="st1" d="M185.5,86.9c0.3,0,0.6,0.1,0.9,0.2s0.5,0.3,0.7,0.5c0.2,0.2,0.3,0.5,0.4,0.8c0.1,0.3,0.2,0.6,0.2,1
		c0,0.4-0.1,0.7-0.2,1c-0.1,0.3-0.3,0.5-0.4,0.8c-0.2,0.2-0.4,0.4-0.7,0.5s-0.6,0.2-0.9,0.2s-0.6-0.1-0.9-0.2
		c-0.3-0.1-0.5-0.3-0.7-0.5c-0.2-0.2-0.3-0.5-0.4-0.8c-0.1-0.3-0.2-0.6-0.2-1c0-0.4,0.1-0.7,0.2-1c0.1-0.3,0.3-0.5,0.4-0.8
		c0.2-0.2,0.4-0.4,0.7-0.5C184.9,86.9,185.2,86.9,185.5,86.9z M185.5,91c0.5,0,0.8-0.2,1-0.5c0.2-0.3,0.3-0.7,0.3-1.3
		c0-0.6-0.1-1-0.3-1.3s-0.6-0.5-1-0.5c-0.2,0-0.4,0-0.6,0.1s-0.3,0.2-0.4,0.3s-0.2,0.3-0.3,0.6c-0.1,0.2-0.1,0.5-0.1,0.7
		c0,0.3,0,0.5,0.1,0.7s0.1,0.4,0.3,0.5s0.3,0.3,0.4,0.3C185.1,91,185.3,91,185.5,91z"/>
</g>
<g>
</g>
<g>
</g>
<g>
</g>
<g>
</g>
<g>
</g>
<g>
</g>
<g>
</g>
<g>
</g>
<g>
</g>
<g>
</g>
<g>
</g>
<g>
</g>
<g>
</g>
<g>
</g>
<g>
</g>
</svg>
