<?xml version="1.0" encoding="utf-8"?>
<!-- Generator: Adobe Illustrator 21.1.0, SVG Export Plug-In . SVG Version: 6.00 Build 0)  -->
<svg version="1.1" id="Calque_1" xmlns="http://www.w3.org/2000/svg" xmlns:xlink="http://www.w3.org/1999/xlink" x="0px" y="0px"
	 viewBox="0 0 194.3 93.4" style="enable-background:new 0 0 194.3 93.4;" xml:space="preserve">
<style type="text/css">
	.st0{clip-path:url(#SVGID_2_);fill:url(#SVGID_3_);}
	.st1{fill:#32368C;}
</style>
<g>
	<defs>
		<path id="SVGID_1_" d="M4.8,0C2.1,0,0,2.1,0,4.8v83.8c0,2.6,2.1,4.8,4.8,4.8h184.7c2.6,0,4.8-2.1,4.8-4.8V4.8
			c0-2.6-2.1-4.8-4.8-4.8H4.8z"/>
	</defs>
	<clipPath id="SVGID_2_">
		<use xlink:href="#SVGID_1_"  style="overflow:visible;"/>
	</clipPath>
	
		<radialGradient id="SVGID_3_" cx="-302.5529" cy="729.6758" r="1" gradientTransform="matrix(76.203 0 0 -76.203 23152.5781 55650.1719)" gradientUnits="userSpaceOnUse">
		<stop  offset="0" style="stop-color:#FFED00"/>
		<stop  offset="0.3362" style="stop-color:#F5D800"/>
		<stop  offset="1" style="stop-color:#DCA300"/>
	</radialGradient>
	<rect x="0" y="0" class="st0" width="194.3" height="93.4"/>
</g>
<g>
	<path class="st1" d="M7.2,9.8h15.5c1.8,0,3.4,0.6,4.7,1.9c1.3,1.2,1.9,2.8,1.9,4.5v21.3c0,1.8-0.6,3.3-1.9,4.5
		c-1.3,1.2-2.9,1.9-4.7,1.9H7.2V9.8z M20.5,16.2h-4.4v21.3h4.4V16.2z"/>
	<path class="st1" d="M33.8,9.8h20v6.4H42.7v6.4h8.9v6.4h-8.9v8.5h11.1v6.4h-20V9.8z"/>
	<path class="st1" d="M56,33.2h8.9v4.3h4.4V30h-8.9c-1.2,0-2.2-0.4-3.1-1.3s-1.3-1.8-1.3-3v-9.6c0-1.8,0.6-3.3,1.9-4.5
		c1.3-1.2,2.9-1.9,4.7-1.9h8.9c1.8,0,3.4,0.6,4.7,1.9c1.3,1.2,1.9,2.8,1.9,4.5v4.3h-8.9v-4.3h-4.4v7.5h8.9c1.2,0,2.2,0.4,3.1,1.3
		s1.3,1.8,1.3,3v9.6c0,1.8-0.6,3.3-1.9,4.5c-1.3,1.2-2.9,1.9-4.7,1.9h-8.9c-1.8,0-3.4-0.6-4.7-1.9c-1.3-1.2-1.9-2.8-1.9-4.5V33.2z"
		/>
	<path class="st1" d="M87,16.2h-5.5V9.8h20v6.4h-5.5v27.7H87V16.2z"/>
	<path class="st1" d="M104.7,16.2c0-1.8,0.6-3.3,1.9-4.5c1.3-1.2,2.9-1.9,4.7-1.9h8.9c1.8,0,3.4,0.6,4.7,1.9
		c1.3,1.2,1.9,2.8,1.9,4.5v21.3c0,1.8-0.6,3.3-1.9,4.5c-1.3,1.2-2.9,1.9-4.7,1.9h-8.9c-1.8,0-3.4-0.6-4.7-1.9
		c-1.3-1.2-1.9-2.8-1.9-4.5V16.2z M118,16.2h-4.4v21.3h4.4V16.2z"/>
	<path class="st1" d="M131.3,16.2c0-1.8,0.6-3.3,1.9-4.5c1.3-1.2,2.9-1.9,4.7-1.9h8.9c1.8,0,3.4,0.6,4.7,1.9
		c1.3,1.2,1.9,2.8,1.9,4.5v6.4h-8.9v-6.4h-4.4v21.3h4.4v-6.4h8.9v6.4c0,1.8-0.6,3.3-1.9,4.5c-1.3,1.2-2.9,1.9-4.7,1.9H138
		c-1.8,0-3.4-0.6-4.7-1.9c-1.3-1.2-1.9-2.8-1.9-4.5V16.2z"/>
	<path class="st1" d="M157.9,9.8h8.9v12.8l4.4-8.5V9.8h8.9V14l-4.4,8.5c1.2,0,2.2,0.4,3.1,1.3s1.3,1.8,1.3,3v17.1h-8.9V28.9h-4.4
		v14.9h-8.9V9.8z"/>
</g>
<g>
	<path class="st1" d="M7.1,47.8h19.2v6.4H15.6v6.4h8.5V67h-8.5v8.5h10.7v6.4H7.1V47.8z"/>
	<path class="st1" d="M28.4,47.8H37v27.7h4.3V47.8h8.5v27.7c0,1.8-0.6,3.3-1.9,4.5c-1.2,1.2-2.8,1.9-4.5,1.9h-8.5
		c-1.8,0-3.3-0.6-4.5-1.9c-1.2-1.2-1.9-2.8-1.9-4.5V47.8z"/>
	<path class="st1" d="M54,47.8h14.9c1.8,0,3.3,0.6,4.5,1.9c1.2,1.2,1.9,2.8,1.9,4.5v10.7c0,1.2-0.4,2.2-1.3,3s-1.8,1.3-3,1.3
		l4.3,8.5v4.3h-8.5v-4.3l-4.3-8.5v12.8H54V47.8z M66.8,54.2h-4.3v8.5h4.3V54.2z"/>
	<path class="st1" d="M79.6,54.2c0-1.8,0.6-3.3,1.9-4.5c1.2-1.2,2.8-1.9,4.5-1.9h8.5c1.8,0,3.3,0.6,4.5,1.9c1.2,1.2,1.9,2.8,1.9,4.5
		v21.3c0,1.8-0.6,3.3-1.9,4.5c-1.2,1.2-2.8,1.9-4.5,1.9H86c-1.8,0-3.3-0.6-4.5-1.9c-1.2-1.2-1.9-2.8-1.9-4.5V54.2z M92.4,54.2h-4.3
		v21.3h4.3V54.2z"/>
	<path class="st1" d="M105.2,47.8h14.9c1.8,0,3.3,0.6,4.5,1.9c1.2,1.2,1.9,2.8,1.9,4.5v10.7c0,1.8-0.6,3.3-1.9,4.5
		c-1.2,1.2-2.8,1.9-4.5,1.9h-6.4v10.7h-8.5V47.8z M118,54.2h-4.3v10.7h4.3V54.2z"/>
	<path class="st1" d="M130.7,47.8h19.2v6.4h-10.7v6.4h8.5V67h-8.5v8.5h10.7v6.4h-19.2V47.8z"/>
</g>
<g>
	<path class="st1" d="M151.9,79.6h2.7v2.7h-2.7V79.6z"/>
	<path class="st1" d="M156,73.4c0-0.6,0.2-1.1,0.6-1.5c0.4-0.4,0.9-0.6,1.4-0.6h2.7c0.6,0,1.1,0.2,1.4,0.6c0.4,0.4,0.6,0.9,0.6,1.5
		v2h-2.7v-2h-1.4v6.8h1.4v-2h2.7v2c0,0.6-0.2,1.1-0.6,1.4c-0.4,0.4-0.9,0.6-1.4,0.6h-2.7c-0.6,0-1.1-0.2-1.4-0.6
		c-0.4-0.4-0.6-0.9-0.6-1.4V73.4z"/>
	<path class="st1" d="M164.2,73.4c0-0.6,0.2-1.1,0.6-1.5c0.4-0.4,0.9-0.6,1.5-0.6h2.7c0.6,0,1.1,0.2,1.4,0.6
		c0.4,0.4,0.6,0.9,0.6,1.5v6.8c0,0.6-0.2,1.1-0.6,1.4c-0.4,0.4-0.9,0.6-1.4,0.6h-2.7c-0.6,0-1.1-0.2-1.5-0.6
		c-0.4-0.4-0.6-0.9-0.6-1.4V73.4z M168.3,73.4h-1.4v6.8h1.4V73.4z"/>
	<path class="st1" d="M172.4,71.4h2.4l2.4,4.8l2.4-4.8h2.4v10.9h-2.7v-4.8l-2,4.1l-2-4.1v4.8h-2.7V71.4z"/>
</g>
<g>
	<path class="st1" d="M4.7,84.8h0.7c0.1,0,0.1,0,0.2,0.1S5.8,85,5.8,85l1.9,4.8c0,0.1,0.1,0.2,0.1,0.4c0,0.1,0.1,0.3,0.1,0.4
		C8,90.4,8,90.3,8,90.2s0.1-0.2,0.1-0.4l1.9-4.8c0-0.1,0.1-0.1,0.1-0.2c0.1,0,0.1-0.1,0.2-0.1h0.7l-2.8,6.8H7.5L4.7,84.8z"/>
	<path class="st1" d="M13.2,86.7c0.4,0,0.7,0.1,1,0.2c0.3,0.1,0.5,0.3,0.7,0.5c0.2,0.2,0.3,0.5,0.5,0.8c0.1,0.3,0.2,0.6,0.2,1
		c0,0.4-0.1,0.7-0.2,1c-0.1,0.3-0.3,0.6-0.5,0.8c-0.2,0.2-0.4,0.4-0.7,0.5c-0.3,0.1-0.6,0.2-1,0.2s-0.7-0.1-1-0.2
		c-0.3-0.1-0.5-0.3-0.7-0.5c-0.2-0.2-0.4-0.5-0.5-0.8c-0.1-0.3-0.2-0.6-0.2-1c0-0.4,0.1-0.7,0.2-1c0.1-0.3,0.3-0.6,0.5-0.8
		c0.2-0.2,0.4-0.4,0.7-0.5C12.6,86.8,12.9,86.7,13.2,86.7z M13.2,91c0.5,0,0.8-0.2,1.1-0.5s0.4-0.8,0.4-1.3c0-0.6-0.1-1-0.4-1.3
		c-0.2-0.3-0.6-0.5-1.1-0.5c-0.2,0-0.4,0-0.6,0.1c-0.2,0.1-0.3,0.2-0.4,0.4s-0.2,0.3-0.3,0.6s-0.1,0.5-0.1,0.8s0,0.5,0.1,0.8
		s0.1,0.4,0.3,0.6s0.3,0.3,0.4,0.4C12.8,91,13,91,13.2,91z"/>
	<path class="st1" d="M19.3,87.6c0,0.1-0.1,0.1-0.2,0.1c0,0-0.1,0-0.2-0.1c-0.1,0-0.1-0.1-0.2-0.1c-0.1,0-0.2-0.1-0.3-0.1
		c-0.1,0-0.3-0.1-0.4-0.1c-0.1,0-0.3,0-0.4,0.1c-0.1,0-0.2,0.1-0.3,0.1c-0.1,0.1-0.1,0.1-0.2,0.2c0,0.1-0.1,0.2-0.1,0.3
		c0,0.1,0,0.2,0.1,0.3s0.2,0.2,0.3,0.2c0.1,0.1,0.3,0.1,0.4,0.2c0.1,0,0.3,0.1,0.5,0.1c0.2,0.1,0.3,0.1,0.5,0.2s0.3,0.1,0.4,0.2
		c0.1,0.1,0.2,0.2,0.3,0.3s0.1,0.3,0.1,0.5c0,0.2,0,0.4-0.1,0.6s-0.2,0.4-0.4,0.5s-0.3,0.2-0.6,0.3c-0.2,0.1-0.5,0.1-0.8,0.1
		c-0.3,0-0.6-0.1-0.9-0.2c-0.3-0.1-0.5-0.2-0.7-0.4l0.2-0.3c0,0,0.1-0.1,0.1-0.1c0,0,0.1,0,0.1,0c0.1,0,0.1,0,0.2,0.1
		c0.1,0,0.1,0.1,0.2,0.1c0.1,0.1,0.2,0.1,0.3,0.1c0.1,0,0.3,0.1,0.5,0.1c0.2,0,0.3,0,0.4-0.1c0.1,0,0.2-0.1,0.3-0.2
		c0.1-0.1,0.1-0.2,0.2-0.3c0-0.1,0.1-0.2,0.1-0.3c0-0.1,0-0.2-0.1-0.3c-0.1-0.1-0.2-0.2-0.3-0.2c-0.1-0.1-0.3-0.1-0.4-0.2
		s-0.3-0.1-0.5-0.1c-0.2-0.1-0.3-0.1-0.5-0.2c-0.2-0.1-0.3-0.1-0.4-0.2c-0.1-0.1-0.2-0.2-0.3-0.4c-0.1-0.1-0.1-0.3-0.1-0.5
		c0-0.2,0-0.4,0.1-0.5c0.1-0.2,0.2-0.3,0.3-0.4c0.1-0.1,0.3-0.2,0.5-0.3c0.2-0.1,0.5-0.1,0.7-0.1c0.3,0,0.6,0,0.9,0.1
		s0.5,0.2,0.7,0.4L19.3,87.6z"/>
	<path class="st1" d="M22.5,93.3v-6.4H23c0.1,0,0.2,0.1,0.2,0.2l0.1,0.6c0.2-0.3,0.4-0.5,0.7-0.6c0.3-0.2,0.6-0.2,0.9-0.2
		c0.3,0,0.5,0.1,0.8,0.2c0.2,0.1,0.4,0.3,0.6,0.5c0.2,0.2,0.3,0.5,0.4,0.8c0.1,0.3,0.1,0.7,0.1,1.1c0,0.4,0,0.7-0.1,1
		c-0.1,0.3-0.2,0.6-0.4,0.8c-0.2,0.2-0.4,0.4-0.7,0.5c-0.3,0.1-0.5,0.2-0.9,0.2c-0.3,0-0.6,0-0.8-0.1c-0.2-0.1-0.4-0.2-0.6-0.4v2.1
		H22.5z M24.7,87.4c-0.3,0-0.5,0.1-0.7,0.2c-0.2,0.1-0.4,0.3-0.6,0.5v2.3c0.2,0.2,0.3,0.4,0.5,0.4c0.2,0.1,0.4,0.1,0.6,0.1
		c0.4,0,0.8-0.2,1-0.5c0.2-0.3,0.4-0.8,0.4-1.4c0-0.3,0-0.6-0.1-0.8c-0.1-0.2-0.1-0.4-0.2-0.6c-0.1-0.1-0.2-0.2-0.4-0.3
		S24.9,87.4,24.7,87.4z"/>
	<path class="st1" d="M29.7,86.7c0.3,0,0.6,0,0.8,0.1c0.2,0.1,0.5,0.2,0.6,0.4c0.2,0.2,0.3,0.4,0.4,0.7c0.1,0.3,0.1,0.6,0.1,0.9
		c0,0.1,0,0.2,0,0.3c0,0-0.1,0.1-0.2,0.1h-3.2c0,0.3,0,0.6,0.1,0.8s0.2,0.4,0.3,0.6c0.1,0.2,0.3,0.3,0.5,0.3s0.4,0.1,0.6,0.1
		c0.2,0,0.4,0,0.5-0.1c0.2,0,0.3-0.1,0.4-0.2c0.1-0.1,0.2-0.1,0.3-0.2c0.1,0,0.1-0.1,0.2-0.1c0.1,0,0.1,0,0.2,0.1l0.2,0.3
		c-0.1,0.1-0.2,0.2-0.4,0.3c-0.1,0.1-0.3,0.2-0.5,0.2c-0.2,0.1-0.3,0.1-0.5,0.1s-0.4,0-0.5,0c-0.3,0-0.6-0.1-0.9-0.2
		s-0.5-0.3-0.7-0.5c-0.2-0.2-0.4-0.5-0.5-0.8c-0.1-0.3-0.2-0.7-0.2-1.1c0-0.3,0.1-0.6,0.2-0.9c0.1-0.3,0.3-0.5,0.4-0.8
		c0.2-0.2,0.4-0.4,0.7-0.5S29.3,86.7,29.7,86.7z M29.7,87.4c-0.4,0-0.7,0.1-1,0.4c-0.2,0.2-0.4,0.6-0.4,1h2.6c0-0.2,0-0.4-0.1-0.5
		s-0.1-0.3-0.2-0.4s-0.2-0.2-0.4-0.3C30.1,87.4,29.9,87.4,29.7,87.4z"/>
	<path class="st1" d="M34.2,91.7c-0.4,0-0.7-0.1-0.9-0.3S33,90.9,33,90.5v-2.9h-0.6c-0.1,0-0.1,0-0.1,0c0,0-0.1-0.1-0.1-0.1V87
		l0.8-0.1l0.2-1.5c0,0,0-0.1,0.1-0.1s0.1,0,0.1,0h0.4v1.7h1.4v0.6h-1.4v2.9c0,0.2,0,0.4,0.1,0.5c0.1,0.1,0.2,0.1,0.4,0.1
		c0.1,0,0.2,0,0.2,0c0.1,0,0.1,0,0.2-0.1s0.1-0.1,0.1-0.1c0,0,0.1,0,0.1,0c0,0,0.1,0,0.1,0.1l0.2,0.4c-0.1,0.1-0.3,0.2-0.5,0.3
		C34.6,91.7,34.4,91.7,34.2,91.7z"/>
	<path class="st1" d="M37.4,85.3c0,0.1,0,0.2-0.1,0.2c0,0.1-0.1,0.1-0.1,0.2c-0.1,0.1-0.1,0.1-0.2,0.1c-0.1,0-0.2,0-0.2,0
		c-0.1,0-0.2,0-0.2,0c-0.1,0-0.1-0.1-0.2-0.1c-0.1-0.1-0.1-0.1-0.1-0.2s0-0.1,0-0.2s0-0.2,0-0.2s0.1-0.1,0.1-0.2
		c0.1-0.1,0.1-0.1,0.2-0.1c0.1,0,0.1,0,0.2,0c0.1,0,0.2,0,0.2,0c0.1,0,0.1,0.1,0.2,0.1c0.1,0.1,0.1,0.1,0.1,0.2
		C37.4,85.1,37.4,85.2,37.4,85.3z M37.2,86.8v4.8h-0.8v-4.8H37.2z"/>
	<path class="st1" d="M40.2,91.7c-0.4,0-0.7-0.1-0.9-0.3S39,90.9,39,90.5v-2.9h-0.6c-0.1,0-0.1,0-0.1,0c0,0-0.1-0.1-0.1-0.1V87
		l0.8-0.1l0.2-1.5c0,0,0-0.1,0.1-0.1s0.1,0,0.1,0h0.4v1.7h1.4v0.6h-1.4v2.9c0,0.2,0,0.4,0.1,0.5c0.1,0.1,0.2,0.1,0.4,0.1
		c0.1,0,0.2,0,0.2,0c0.1,0,0.1,0,0.2-0.1s0.1-0.1,0.1-0.1c0,0,0.1,0,0.1,0c0,0,0.1,0,0.1,0.1l0.2,0.4c-0.1,0.1-0.3,0.2-0.5,0.3
		C40.6,91.7,40.4,91.7,40.2,91.7z"/>
	<path class="st1" d="M44.2,86.7c0.3,0,0.6,0,0.8,0.1c0.2,0.1,0.5,0.2,0.6,0.4c0.2,0.2,0.3,0.4,0.4,0.7c0.1,0.3,0.1,0.6,0.1,0.9
		c0,0.1,0,0.2,0,0.3c0,0-0.1,0.1-0.2,0.1h-3.2c0,0.3,0,0.6,0.1,0.8s0.2,0.4,0.3,0.6c0.1,0.2,0.3,0.3,0.5,0.3s0.4,0.1,0.6,0.1
		c0.2,0,0.4,0,0.5-0.1c0.2,0,0.3-0.1,0.4-0.2c0.1-0.1,0.2-0.1,0.3-0.2c0.1,0,0.1-0.1,0.2-0.1c0.1,0,0.1,0,0.2,0.1l0.2,0.3
		c-0.1,0.1-0.2,0.2-0.4,0.3c-0.1,0.1-0.3,0.2-0.5,0.2c-0.2,0.1-0.3,0.1-0.5,0.1s-0.4,0-0.5,0c-0.3,0-0.6-0.1-0.9-0.2
		s-0.5-0.3-0.7-0.5c-0.2-0.2-0.4-0.5-0.5-0.8c-0.1-0.3-0.2-0.7-0.2-1.1c0-0.3,0.1-0.6,0.2-0.9c0.1-0.3,0.3-0.5,0.4-0.8
		c0.2-0.2,0.4-0.4,0.7-0.5S43.8,86.7,44.2,86.7z M44.2,87.4c-0.4,0-0.7,0.1-1,0.4c-0.2,0.2-0.4,0.6-0.4,1h2.6c0-0.2,0-0.4-0.1-0.5
		s-0.1-0.3-0.2-0.4s-0.2-0.2-0.4-0.3C44.6,87.4,44.4,87.4,44.2,87.4z"/>
	<path class="st1" d="M50,87.6c0,0.1-0.1,0.1-0.2,0.1c0,0-0.1,0-0.2-0.1c-0.1,0-0.1-0.1-0.2-0.1c-0.1,0-0.2-0.1-0.3-0.1
		c-0.1,0-0.3-0.1-0.4-0.1c-0.1,0-0.3,0-0.4,0.1c-0.1,0-0.2,0.1-0.3,0.1c-0.1,0.1-0.1,0.1-0.2,0.2c0,0.1-0.1,0.2-0.1,0.3
		c0,0.1,0,0.2,0.1,0.3s0.2,0.2,0.3,0.2c0.1,0.1,0.3,0.1,0.4,0.2c0.1,0,0.3,0.1,0.5,0.1c0.2,0.1,0.3,0.1,0.5,0.2s0.3,0.1,0.4,0.2
		c0.1,0.1,0.2,0.2,0.3,0.3s0.1,0.3,0.1,0.5c0,0.2,0,0.4-0.1,0.6s-0.2,0.4-0.4,0.5s-0.3,0.2-0.6,0.3c-0.2,0.1-0.5,0.1-0.8,0.1
		c-0.3,0-0.6-0.1-0.9-0.2c-0.3-0.1-0.5-0.2-0.7-0.4l0.2-0.3c0,0,0.1-0.1,0.1-0.1c0,0,0.1,0,0.1,0c0.1,0,0.1,0,0.2,0.1
		c0.1,0,0.1,0.1,0.2,0.1c0.1,0.1,0.2,0.1,0.3,0.1c0.1,0,0.3,0.1,0.5,0.1c0.2,0,0.3,0,0.4-0.1c0.1,0,0.2-0.1,0.3-0.2
		c0.1-0.1,0.1-0.2,0.2-0.3c0-0.1,0.1-0.2,0.1-0.3c0-0.1,0-0.2-0.1-0.3c-0.1-0.1-0.2-0.2-0.3-0.2c-0.1-0.1-0.3-0.1-0.4-0.2
		s-0.3-0.1-0.5-0.1c-0.2-0.1-0.3-0.1-0.5-0.2c-0.2-0.1-0.3-0.1-0.4-0.2c-0.1-0.1-0.2-0.2-0.3-0.4C47,88.5,47,88.3,47,88.1
		c0-0.2,0-0.4,0.1-0.5c0.1-0.2,0.2-0.3,0.3-0.4c0.1-0.1,0.3-0.2,0.5-0.3c0.2-0.1,0.5-0.1,0.7-0.1c0.3,0,0.6,0,0.9,0.1
		s0.5,0.2,0.7,0.4L50,87.6z"/>
	<path class="st1" d="M56.7,91.6h-0.4c-0.1,0-0.1,0-0.2,0c-0.1,0-0.1-0.1-0.1-0.2L56,91c-0.1,0.1-0.3,0.2-0.4,0.3
		c-0.1,0.1-0.2,0.2-0.4,0.2c-0.1,0.1-0.3,0.1-0.4,0.1c-0.2,0-0.3,0-0.5,0c-0.2,0-0.4,0-0.5-0.1c-0.2-0.1-0.3-0.1-0.4-0.2
		c-0.1-0.1-0.2-0.2-0.3-0.4s-0.1-0.4-0.1-0.6c0-0.2,0.1-0.4,0.2-0.6c0.1-0.2,0.3-0.3,0.5-0.5c0.2-0.1,0.5-0.2,0.9-0.3
		c0.4-0.1,0.8-0.1,1.4-0.1v-0.4c0-0.4-0.1-0.7-0.2-0.9c-0.2-0.2-0.4-0.3-0.7-0.3c-0.2,0-0.4,0-0.5,0.1c-0.1,0.1-0.3,0.1-0.4,0.2
		c-0.1,0.1-0.2,0.1-0.3,0.2c-0.1,0.1-0.1,0.1-0.2,0.1c-0.1,0-0.1,0-0.1,0c0,0-0.1-0.1-0.1-0.1l-0.2-0.3c0.3-0.3,0.6-0.4,0.9-0.6
		s0.6-0.2,1-0.2c0.3,0,0.5,0,0.7,0.1c0.2,0.1,0.4,0.2,0.5,0.4s0.3,0.3,0.3,0.6c0.1,0.2,0.1,0.5,0.1,0.7V91.6z M54.5,91.1
		c0.1,0,0.3,0,0.4,0c0.1,0,0.2-0.1,0.3-0.1c0.1-0.1,0.2-0.1,0.3-0.2c0.1-0.1,0.2-0.2,0.3-0.3v-1c-0.4,0-0.7,0-1,0.1
		c-0.3,0-0.5,0.1-0.7,0.2c-0.2,0.1-0.3,0.2-0.4,0.3s-0.1,0.2-0.1,0.4c0,0.1,0,0.2,0.1,0.3c0,0.1,0.1,0.2,0.2,0.2
		c0.1,0.1,0.2,0.1,0.2,0.1C54.3,91.1,54.4,91.1,54.5,91.1z"/>
	<path class="st1" d="M58,91.6v-4.8h0.5c0.1,0,0.2,0.1,0.2,0.2l0.1,0.5c0.2-0.2,0.4-0.4,0.7-0.6c0.3-0.1,0.6-0.2,0.9-0.2
		c0.3,0,0.5,0,0.7,0.1s0.4,0.2,0.5,0.4c0.1,0.2,0.2,0.4,0.3,0.6s0.1,0.5,0.1,0.7v3.1h-0.8v-3.1c0-0.4-0.1-0.6-0.2-0.8
		c-0.2-0.2-0.4-0.3-0.8-0.3c-0.3,0-0.5,0.1-0.7,0.2c-0.2,0.1-0.4,0.3-0.6,0.5v3.5H58z"/>
	<path class="st1" d="M63.3,91.6v-4.8h0.5c0.1,0,0.2,0.1,0.2,0.2l0.1,0.5c0.2-0.2,0.4-0.4,0.7-0.6c0.3-0.1,0.6-0.2,0.9-0.2
		c0.3,0,0.5,0,0.7,0.1s0.4,0.2,0.5,0.4c0.1,0.2,0.2,0.4,0.3,0.6s0.1,0.5,0.1,0.7v3.1h-0.8v-3.1c0-0.4-0.1-0.6-0.2-0.8
		c-0.2-0.2-0.4-0.3-0.8-0.3c-0.3,0-0.5,0.1-0.7,0.2c-0.2,0.1-0.4,0.3-0.6,0.5v3.5H63.3z"/>
	<path class="st1" d="M70.5,86.7c0.4,0,0.7,0.1,1,0.2c0.3,0.1,0.5,0.3,0.7,0.5c0.2,0.2,0.3,0.5,0.5,0.8c0.1,0.3,0.2,0.6,0.2,1
		c0,0.4-0.1,0.7-0.2,1c-0.1,0.3-0.3,0.6-0.5,0.8c-0.2,0.2-0.4,0.4-0.7,0.5c-0.3,0.1-0.6,0.2-1,0.2s-0.7-0.1-1-0.2
		c-0.3-0.1-0.5-0.3-0.7-0.5c-0.2-0.2-0.4-0.5-0.5-0.8c-0.1-0.3-0.2-0.6-0.2-1c0-0.4,0.1-0.7,0.2-1c0.1-0.3,0.3-0.6,0.5-0.8
		c0.2-0.2,0.4-0.4,0.7-0.5C69.9,86.8,70.2,86.7,70.5,86.7z M70.5,91c0.5,0,0.8-0.2,1.1-0.5s0.4-0.8,0.4-1.3c0-0.6-0.1-1-0.4-1.3
		c-0.2-0.3-0.6-0.5-1.1-0.5c-0.2,0-0.4,0-0.6,0.1c-0.2,0.1-0.3,0.2-0.4,0.4s-0.2,0.3-0.3,0.6s-0.1,0.5-0.1,0.8s0,0.5,0.1,0.8
		s0.1,0.4,0.3,0.6s0.3,0.3,0.4,0.4C70.1,91,70.3,91,70.5,91z"/>
	<path class="st1" d="M73.9,91.6v-4.8h0.5c0.1,0,0.2,0.1,0.2,0.2l0.1,0.5c0.2-0.2,0.4-0.4,0.7-0.6c0.3-0.1,0.6-0.2,0.9-0.2
		c0.3,0,0.5,0,0.7,0.1s0.4,0.2,0.5,0.4c0.1,0.2,0.2,0.4,0.3,0.6s0.1,0.5,0.1,0.7v3.1H77v-3.1c0-0.4-0.1-0.6-0.2-0.8
		c-0.2-0.2-0.4-0.3-0.8-0.3c-0.3,0-0.5,0.1-0.7,0.2c-0.2,0.1-0.4,0.3-0.6,0.5v3.5H73.9z"/>
	<path class="st1" d="M82.4,87.7C82.4,87.7,82.4,87.7,82.4,87.7c-0.1,0.1-0.1,0.1-0.2,0.1s-0.1,0-0.2-0.1c-0.1,0-0.1-0.1-0.2-0.1
		c-0.1,0-0.2-0.1-0.3-0.1c-0.1,0-0.3-0.1-0.4-0.1c-0.2,0-0.4,0-0.6,0.1s-0.3,0.2-0.5,0.4s-0.2,0.3-0.3,0.6c-0.1,0.2-0.1,0.5-0.1,0.8
		c0,0.3,0,0.5,0.1,0.8c0.1,0.2,0.2,0.4,0.3,0.6c0.1,0.2,0.3,0.3,0.4,0.4c0.2,0.1,0.4,0.1,0.6,0.1c0.2,0,0.4,0,0.5-0.1
		c0.1,0,0.2-0.1,0.3-0.2c0.1-0.1,0.2-0.1,0.2-0.2s0.1-0.1,0.2-0.1c0.1,0,0.1,0,0.2,0.1l0.2,0.3c-0.2,0.3-0.5,0.4-0.8,0.6
		c-0.3,0.1-0.6,0.2-1,0.2c-0.3,0-0.6-0.1-0.8-0.2c-0.3-0.1-0.5-0.3-0.7-0.5c-0.2-0.2-0.3-0.5-0.4-0.8c-0.1-0.3-0.2-0.7-0.2-1
		c0-0.4,0-0.7,0.1-1c0.1-0.3,0.2-0.6,0.4-0.8c0.2-0.2,0.4-0.4,0.7-0.5c0.3-0.1,0.6-0.2,1-0.2c0.3,0,0.6,0.1,0.9,0.2s0.5,0.3,0.7,0.5
		L82.4,87.7z"/>
	<path class="st1" d="M85.5,86.7c0.3,0,0.6,0,0.8,0.1c0.2,0.1,0.5,0.2,0.6,0.4c0.2,0.2,0.3,0.4,0.4,0.7c0.1,0.3,0.1,0.6,0.1,0.9
		c0,0.1,0,0.2,0,0.3c0,0-0.1,0.1-0.2,0.1h-3.2c0,0.3,0,0.6,0.1,0.8s0.2,0.4,0.3,0.6c0.1,0.2,0.3,0.3,0.5,0.3s0.4,0.1,0.6,0.1
		c0.2,0,0.4,0,0.5-0.1c0.2,0,0.3-0.1,0.4-0.2c0.1-0.1,0.2-0.1,0.3-0.2c0.1,0,0.1-0.1,0.2-0.1c0.1,0,0.1,0,0.2,0.1l0.2,0.3
		c-0.1,0.1-0.2,0.2-0.4,0.3c-0.1,0.1-0.3,0.2-0.5,0.2c-0.2,0.1-0.3,0.1-0.5,0.1s-0.4,0-0.5,0c-0.3,0-0.6-0.1-0.9-0.2
		s-0.5-0.3-0.7-0.5c-0.2-0.2-0.4-0.5-0.5-0.8c-0.1-0.3-0.2-0.7-0.2-1.1c0-0.3,0.1-0.6,0.2-0.9c0.1-0.3,0.3-0.5,0.4-0.8
		c0.2-0.2,0.4-0.4,0.7-0.5S85.1,86.7,85.5,86.7z M85.5,87.4c-0.4,0-0.7,0.1-1,0.4c-0.2,0.2-0.4,0.6-0.4,1h2.6c0-0.2,0-0.4-0.1-0.5
		s-0.1-0.3-0.2-0.4s-0.2-0.2-0.4-0.3C85.9,87.4,85.7,87.4,85.5,87.4z"/>
	<path class="st1" d="M91.3,87.6c0,0.1-0.1,0.1-0.2,0.1c0,0-0.1,0-0.2-0.1c-0.1,0-0.1-0.1-0.2-0.1c-0.1,0-0.2-0.1-0.3-0.1
		c-0.1,0-0.3-0.1-0.4-0.1c-0.1,0-0.3,0-0.4,0.1c-0.1,0-0.2,0.1-0.3,0.1c-0.1,0.1-0.1,0.1-0.2,0.2c0,0.1-0.1,0.2-0.1,0.3
		c0,0.1,0,0.2,0.1,0.3s0.2,0.2,0.3,0.2c0.1,0.1,0.3,0.1,0.4,0.2c0.1,0,0.3,0.1,0.5,0.1c0.2,0.1,0.3,0.1,0.5,0.2s0.3,0.1,0.4,0.2
		c0.1,0.1,0.2,0.2,0.3,0.3s0.1,0.3,0.1,0.5c0,0.2,0,0.4-0.1,0.6s-0.2,0.4-0.4,0.5s-0.3,0.2-0.6,0.3c-0.2,0.1-0.5,0.1-0.8,0.1
		c-0.3,0-0.6-0.1-0.9-0.2c-0.3-0.1-0.5-0.2-0.7-0.4l0.2-0.3c0,0,0.1-0.1,0.1-0.1c0,0,0.1,0,0.1,0c0.1,0,0.1,0,0.2,0.1
		c0.1,0,0.1,0.1,0.2,0.1c0.1,0.1,0.2,0.1,0.3,0.1c0.1,0,0.3,0.1,0.5,0.1c0.2,0,0.3,0,0.4-0.1c0.1,0,0.2-0.1,0.3-0.2
		c0.1-0.1,0.1-0.2,0.2-0.3c0-0.1,0.1-0.2,0.1-0.3c0-0.1,0-0.2-0.1-0.3c-0.1-0.1-0.2-0.2-0.3-0.2c-0.1-0.1-0.3-0.1-0.4-0.2
		s-0.3-0.1-0.5-0.1c-0.2-0.1-0.3-0.1-0.5-0.2c-0.2-0.1-0.3-0.1-0.4-0.2c-0.1-0.1-0.2-0.2-0.3-0.4c-0.1-0.1-0.1-0.3-0.1-0.5
		c0-0.2,0-0.4,0.1-0.5c0.1-0.2,0.2-0.3,0.3-0.4c0.1-0.1,0.3-0.2,0.5-0.3c0.2-0.1,0.5-0.1,0.7-0.1c0.3,0,0.6,0,0.9,0.1
		s0.5,0.2,0.7,0.4L91.3,87.6z"/>
	<path class="st1" d="M96.4,86.7c0.3,0,0.6,0,0.8,0.1c0.2,0.1,0.5,0.2,0.6,0.4c0.2,0.2,0.3,0.4,0.4,0.7c0.1,0.3,0.1,0.6,0.1,0.9
		c0,0.1,0,0.2,0,0.3c0,0-0.1,0.1-0.2,0.1H95c0,0.3,0,0.6,0.1,0.8s0.2,0.4,0.3,0.6c0.1,0.2,0.3,0.3,0.5,0.3s0.4,0.1,0.6,0.1
		c0.2,0,0.4,0,0.5-0.1c0.2,0,0.3-0.1,0.4-0.2c0.1-0.1,0.2-0.1,0.3-0.2c0.1,0,0.1-0.1,0.2-0.1c0.1,0,0.1,0,0.2,0.1l0.2,0.3
		c-0.1,0.1-0.2,0.2-0.4,0.3c-0.1,0.1-0.3,0.2-0.5,0.2c-0.2,0.1-0.3,0.1-0.5,0.1s-0.4,0-0.5,0c-0.3,0-0.6-0.1-0.9-0.2
		S95,91.2,94.8,91c-0.2-0.2-0.4-0.5-0.5-0.8c-0.1-0.3-0.2-0.7-0.2-1.1c0-0.3,0.1-0.6,0.2-0.9c0.1-0.3,0.3-0.5,0.4-0.8
		c0.2-0.2,0.4-0.4,0.7-0.5S96.1,86.7,96.4,86.7z M96.4,87.4c-0.4,0-0.7,0.1-1,0.4c-0.2,0.2-0.4,0.6-0.4,1h2.6c0-0.2,0-0.4-0.1-0.5
		s-0.1-0.3-0.2-0.4s-0.2-0.2-0.4-0.3C96.8,87.4,96.6,87.4,96.4,87.4z"/>
	<path class="st1" d="M99.5,91.6v-4.8h0.5c0.1,0,0.2,0.1,0.2,0.2l0.1,0.5c0.2-0.2,0.4-0.4,0.7-0.6c0.3-0.1,0.6-0.2,0.9-0.2
		c0.3,0,0.5,0,0.7,0.1s0.4,0.2,0.5,0.4c0.1,0.2,0.2,0.4,0.3,0.6s0.1,0.5,0.1,0.7v3.1h-0.8v-3.1c0-0.4-0.1-0.6-0.2-0.8
		c-0.2-0.2-0.4-0.3-0.8-0.3c-0.3,0-0.5,0.1-0.7,0.2c-0.2,0.1-0.4,0.3-0.6,0.5v3.5H99.5z"/>
	<path class="st1" d="M110.9,84.8v0.8h-3.3v2.3h2.6v0.7h-2.6v2.3h3.3v0.8h-4.2v-6.8H110.9z"/>
	<path class="st1" d="M112.9,86.8v3.1c0,0.4,0.1,0.6,0.3,0.8c0.2,0.2,0.4,0.3,0.8,0.3c0.2,0,0.5-0.1,0.7-0.2s0.4-0.3,0.6-0.5v-3.5
		h0.8v4.8h-0.5c-0.1,0-0.2-0.1-0.2-0.2l-0.1-0.5c-0.2,0.2-0.4,0.4-0.7,0.6c-0.3,0.1-0.6,0.2-0.9,0.2c-0.3,0-0.5,0-0.7-0.1
		s-0.4-0.2-0.5-0.4c-0.1-0.2-0.2-0.3-0.3-0.6c-0.1-0.2-0.1-0.5-0.1-0.7v-3.1H112.9z"/>
	<path class="st1" d="M117.4,91.6v-4.8h0.5c0.1,0,0.2,0,0.2,0.1c0,0,0.1,0.1,0.1,0.2l0.1,0.8c0.2-0.3,0.4-0.6,0.6-0.8
		s0.5-0.3,0.9-0.3c0.1,0,0.3,0,0.4,0c0.1,0,0.2,0.1,0.3,0.1l-0.1,0.6c0,0.1-0.1,0.1-0.1,0.1c0,0-0.1,0-0.2,0c-0.1,0-0.2,0-0.4,0
		c-0.3,0-0.5,0.1-0.7,0.3c-0.2,0.2-0.4,0.4-0.5,0.7v3.1H117.4z"/>
	<path class="st1" d="M123.2,86.7c0.4,0,0.7,0.1,1,0.2c0.3,0.1,0.5,0.3,0.7,0.5c0.2,0.2,0.3,0.5,0.5,0.8c0.1,0.3,0.2,0.6,0.2,1
		c0,0.4-0.1,0.7-0.2,1c-0.1,0.3-0.3,0.6-0.5,0.8c-0.2,0.2-0.4,0.4-0.7,0.5c-0.3,0.1-0.6,0.2-1,0.2s-0.7-0.1-1-0.2
		c-0.3-0.1-0.5-0.3-0.7-0.5c-0.2-0.2-0.4-0.5-0.5-0.8c-0.1-0.3-0.2-0.6-0.2-1c0-0.4,0.1-0.7,0.2-1c0.1-0.3,0.3-0.6,0.5-0.8
		c0.2-0.2,0.4-0.4,0.7-0.5S122.8,86.7,123.2,86.7z M123.2,91c0.5,0,0.8-0.2,1.1-0.5s0.4-0.8,0.4-1.3c0-0.6-0.1-1-0.4-1.3
		c-0.2-0.3-0.6-0.5-1.1-0.5c-0.2,0-0.4,0-0.6,0.1c-0.2,0.1-0.3,0.2-0.4,0.4c-0.1,0.2-0.2,0.3-0.3,0.6s-0.1,0.5-0.1,0.8
		s0,0.5,0.1,0.8s0.1,0.4,0.3,0.6c0.1,0.2,0.3,0.3,0.4,0.4C122.7,91,122.9,91,123.2,91z"/>
	<path class="st1" d="M126.5,93.3v-6.4h0.5c0.1,0,0.2,0.1,0.2,0.2l0.1,0.6c0.2-0.3,0.4-0.5,0.7-0.6c0.3-0.2,0.6-0.2,0.9-0.2
		c0.3,0,0.5,0.1,0.8,0.2c0.2,0.1,0.4,0.3,0.6,0.5c0.2,0.2,0.3,0.5,0.4,0.8c0.1,0.3,0.1,0.7,0.1,1.1c0,0.4,0,0.7-0.1,1
		c-0.1,0.3-0.2,0.6-0.4,0.8c-0.2,0.2-0.4,0.4-0.7,0.5c-0.3,0.1-0.5,0.2-0.9,0.2c-0.3,0-0.6,0-0.8-0.1c-0.2-0.1-0.4-0.2-0.6-0.4v2.1
		H126.5z M128.7,87.4c-0.3,0-0.5,0.1-0.7,0.2c-0.2,0.1-0.4,0.3-0.6,0.5v2.3c0.2,0.2,0.3,0.4,0.5,0.4c0.2,0.1,0.4,0.1,0.6,0.1
		c0.4,0,0.8-0.2,1-0.5c0.2-0.3,0.4-0.8,0.4-1.4c0-0.3,0-0.6-0.1-0.8c-0.1-0.2-0.1-0.4-0.2-0.6c-0.1-0.1-0.2-0.2-0.4-0.3
		S128.9,87.4,128.7,87.4z"/>
	<path class="st1" d="M133.7,86.7c0.3,0,0.6,0,0.8,0.1c0.2,0.1,0.5,0.2,0.6,0.4c0.2,0.2,0.3,0.4,0.4,0.7s0.1,0.6,0.1,0.9
		c0,0.1,0,0.2,0,0.3c0,0-0.1,0.1-0.2,0.1h-3.2c0,0.3,0,0.6,0.1,0.8c0.1,0.2,0.2,0.4,0.3,0.6c0.1,0.2,0.3,0.3,0.5,0.3
		s0.4,0.1,0.6,0.1c0.2,0,0.4,0,0.5-0.1s0.3-0.1,0.4-0.2c0.1-0.1,0.2-0.1,0.3-0.2c0.1,0,0.1-0.1,0.2-0.1c0.1,0,0.1,0,0.2,0.1l0.2,0.3
		c-0.1,0.1-0.2,0.2-0.4,0.3c-0.1,0.1-0.3,0.2-0.5,0.2c-0.2,0.1-0.3,0.1-0.5,0.1c-0.2,0-0.4,0-0.5,0c-0.3,0-0.6-0.1-0.9-0.2
		s-0.5-0.3-0.7-0.5c-0.2-0.2-0.4-0.5-0.5-0.8c-0.1-0.3-0.2-0.7-0.2-1.1c0-0.3,0.1-0.6,0.2-0.9c0.1-0.3,0.3-0.5,0.4-0.8
		s0.4-0.4,0.7-0.5C133,86.8,133.3,86.7,133.7,86.7z M133.7,87.4c-0.4,0-0.7,0.1-1,0.4c-0.2,0.2-0.4,0.6-0.4,1h2.6
		c0-0.2,0-0.4-0.1-0.5c-0.1-0.2-0.1-0.3-0.2-0.4s-0.2-0.2-0.4-0.3C134.1,87.4,133.9,87.4,133.7,87.4z"/>
	<path class="st1" d="M142,91.6c-0.1,0-0.2-0.1-0.2-0.2l-0.1-0.6c-0.2,0.3-0.4,0.5-0.7,0.6c-0.3,0.2-0.6,0.2-0.9,0.2
		c-0.3,0-0.5-0.1-0.8-0.2c-0.2-0.1-0.4-0.3-0.6-0.5s-0.3-0.5-0.4-0.8c-0.1-0.3-0.1-0.7-0.1-1.1c0-0.4,0-0.7,0.1-1s0.2-0.6,0.4-0.8
		c0.2-0.2,0.4-0.4,0.7-0.5c0.3-0.1,0.5-0.2,0.9-0.2c0.3,0,0.5,0,0.8,0.1c0.2,0.1,0.4,0.2,0.6,0.4v-2.7h0.8v7H142z M140.3,91
		c0.3,0,0.5-0.1,0.7-0.2c0.2-0.1,0.4-0.3,0.6-0.5V88c-0.2-0.2-0.3-0.4-0.5-0.4s-0.4-0.1-0.6-0.1c-0.4,0-0.8,0.2-1,0.5
		c-0.2,0.3-0.4,0.8-0.4,1.4c0,0.3,0,0.6,0.1,0.8c0.1,0.2,0.1,0.4,0.2,0.6c0.1,0.1,0.2,0.2,0.4,0.3C140,91,140.1,91,140.3,91z"/>
	<path class="st1" d="M145.8,86.7c0.3,0,0.6,0,0.8,0.1c0.2,0.1,0.5,0.2,0.6,0.4c0.2,0.2,0.3,0.4,0.4,0.7s0.1,0.6,0.1,0.9
		c0,0.1,0,0.2,0,0.3c0,0-0.1,0.1-0.2,0.1h-3.2c0,0.3,0,0.6,0.1,0.8c0.1,0.2,0.2,0.4,0.3,0.6c0.1,0.2,0.3,0.3,0.5,0.3
		s0.4,0.1,0.6,0.1c0.2,0,0.4,0,0.5-0.1s0.3-0.1,0.4-0.2c0.1-0.1,0.2-0.1,0.3-0.2c0.1,0,0.1-0.1,0.2-0.1c0.1,0,0.1,0,0.2,0.1l0.2,0.3
		c-0.1,0.1-0.2,0.2-0.4,0.3c-0.1,0.1-0.3,0.2-0.5,0.2c-0.2,0.1-0.3,0.1-0.5,0.1c-0.2,0-0.4,0-0.5,0c-0.3,0-0.6-0.1-0.9-0.2
		s-0.5-0.3-0.7-0.5c-0.2-0.2-0.4-0.5-0.5-0.8c-0.1-0.3-0.2-0.7-0.2-1.1c0-0.3,0.1-0.6,0.2-0.9c0.1-0.3,0.3-0.5,0.4-0.8
		s0.4-0.4,0.7-0.5C145.1,86.8,145.4,86.7,145.8,86.7z M145.8,87.4c-0.4,0-0.7,0.1-1,0.4c-0.2,0.2-0.4,0.6-0.4,1h2.6
		c0-0.2,0-0.4-0.1-0.5c-0.1-0.2-0.1-0.3-0.2-0.4s-0.2-0.2-0.4-0.3C146.2,87.4,146,87.4,145.8,87.4z"/>
	<path class="st1" d="M151.8,89.1v2.5h-0.9v-6.8h2c0.4,0,0.8,0,1.1,0.1c0.3,0.1,0.6,0.2,0.8,0.4c0.2,0.2,0.4,0.4,0.5,0.7
		c0.1,0.3,0.2,0.5,0.2,0.9c0,0.3-0.1,0.6-0.2,0.9c-0.1,0.3-0.3,0.5-0.5,0.7c-0.2,0.2-0.5,0.3-0.8,0.4s-0.7,0.2-1.1,0.2H151.8z
		 M151.8,88.3h1.1c0.3,0,0.5,0,0.7-0.1s0.4-0.2,0.5-0.3c0.1-0.1,0.2-0.3,0.3-0.4c0.1-0.2,0.1-0.4,0.1-0.6c0-0.4-0.1-0.8-0.4-1
		c-0.3-0.2-0.7-0.4-1.2-0.4h-1.1V88.3z"/>
	<path class="st1" d="M156.5,91.6v-4.8h0.5c0.1,0,0.2,0,0.2,0.1c0,0,0.1,0.1,0.1,0.2l0.1,0.8c0.2-0.3,0.4-0.6,0.6-0.8
		s0.5-0.3,0.9-0.3c0.1,0,0.3,0,0.4,0c0.1,0,0.2,0.1,0.3,0.1l-0.1,0.6c0,0.1-0.1,0.1-0.1,0.1c0,0-0.1,0-0.2,0c-0.1,0-0.2,0-0.4,0
		c-0.3,0-0.5,0.1-0.7,0.3c-0.2,0.2-0.4,0.4-0.5,0.7v3.1H156.5z"/>
	<path class="st1" d="M162.3,86.7c0.4,0,0.7,0.1,1,0.2c0.3,0.1,0.5,0.3,0.7,0.5c0.2,0.2,0.3,0.5,0.5,0.8c0.1,0.3,0.2,0.6,0.2,1
		c0,0.4-0.1,0.7-0.2,1c-0.1,0.3-0.3,0.6-0.5,0.8c-0.2,0.2-0.4,0.4-0.7,0.5c-0.3,0.1-0.6,0.2-1,0.2s-0.7-0.1-1-0.2
		c-0.3-0.1-0.5-0.3-0.7-0.5c-0.2-0.2-0.4-0.5-0.5-0.8c-0.1-0.3-0.2-0.6-0.2-1c0-0.4,0.1-0.7,0.2-1c0.1-0.3,0.3-0.6,0.5-0.8
		c0.2-0.2,0.4-0.4,0.7-0.5S161.9,86.7,162.3,86.7z M162.3,91c0.5,0,0.8-0.2,1.1-0.5s0.4-0.8,0.4-1.3c0-0.6-0.1-1-0.4-1.3
		c-0.2-0.3-0.6-0.5-1.1-0.5c-0.2,0-0.4,0-0.6,0.1c-0.2,0.1-0.3,0.2-0.4,0.4c-0.1,0.2-0.2,0.3-0.3,0.6s-0.1,0.5-0.1,0.8
		s0,0.5,0.1,0.8s0.1,0.4,0.3,0.6c0.1,0.2,0.3,0.3,0.4,0.4C161.8,91,162,91,162.3,91z"/>
	<path class="st1" d="M171,91.6h-0.4c-0.1,0-0.1,0-0.2,0c0,0-0.1-0.1-0.1-0.2l-0.1-0.4c-0.1,0.1-0.3,0.2-0.4,0.3
		c-0.1,0.1-0.2,0.2-0.4,0.2c-0.1,0.1-0.3,0.1-0.4,0.1c-0.2,0-0.3,0-0.5,0c-0.2,0-0.4,0-0.5-0.1c-0.2-0.1-0.3-0.1-0.4-0.2
		c-0.1-0.1-0.2-0.2-0.3-0.4s-0.1-0.4-0.1-0.6c0-0.2,0.1-0.4,0.2-0.6c0.1-0.2,0.3-0.3,0.5-0.5c0.2-0.1,0.5-0.2,0.9-0.3
		c0.4-0.1,0.8-0.1,1.4-0.1v-0.4c0-0.4-0.1-0.7-0.2-0.9c-0.2-0.2-0.4-0.3-0.7-0.3c-0.2,0-0.4,0-0.5,0.1c-0.1,0.1-0.3,0.1-0.4,0.2
		c-0.1,0.1-0.2,0.1-0.3,0.2c-0.1,0.1-0.1,0.1-0.2,0.1c-0.1,0-0.1,0-0.1,0s-0.1-0.1-0.1-0.1l-0.2-0.3c0.3-0.3,0.6-0.4,0.9-0.6
		c0.3-0.1,0.6-0.2,1-0.2c0.3,0,0.5,0,0.7,0.1c0.2,0.1,0.4,0.2,0.5,0.4s0.3,0.3,0.3,0.6c0.1,0.2,0.1,0.5,0.1,0.7V91.6z M168.8,84.7
		c0.1,0,0.2,0,0.2,0s0.1,0.1,0.1,0.2l0.7,1.1h-0.5c-0.1,0-0.1,0-0.2,0c0,0-0.1-0.1-0.1-0.1l-1.1-1.2H168.8z M168.8,91.1
		c0.1,0,0.3,0,0.4,0c0.1,0,0.2-0.1,0.3-0.1c0.1-0.1,0.2-0.1,0.3-0.2c0.1-0.1,0.2-0.2,0.3-0.3v-1c-0.4,0-0.7,0-1,0.1
		c-0.3,0-0.5,0.1-0.7,0.2c-0.2,0.1-0.3,0.2-0.4,0.3c-0.1,0.1-0.1,0.2-0.1,0.4c0,0.1,0,0.2,0.1,0.3c0,0.1,0.1,0.2,0.2,0.2
		c0.1,0.1,0.2,0.1,0.2,0.1C168.6,91.1,168.7,91.1,168.8,91.1z"/>
	<path class="st1" d="M175.2,89.1v2.5h-0.9v-6.8h2c0.4,0,0.8,0,1.1,0.1c0.3,0.1,0.6,0.2,0.8,0.4c0.2,0.2,0.4,0.4,0.5,0.7
		c0.1,0.3,0.2,0.5,0.2,0.9c0,0.3-0.1,0.6-0.2,0.9c-0.1,0.3-0.3,0.5-0.5,0.7c-0.2,0.2-0.5,0.3-0.8,0.4s-0.7,0.2-1.1,0.2H175.2z
		 M175.2,88.3h1.1c0.3,0,0.5,0,0.7-0.1s0.4-0.2,0.5-0.3c0.1-0.1,0.2-0.3,0.3-0.4c0.1-0.2,0.1-0.4,0.1-0.6c0-0.4-0.1-0.8-0.4-1
		c-0.3-0.2-0.7-0.4-1.2-0.4h-1.1V88.3z"/>
	<path class="st1" d="M179.9,91.6v-4.8h0.5c0.1,0,0.2,0,0.2,0.1c0,0,0.1,0.1,0.1,0.2l0.1,0.8c0.2-0.3,0.4-0.6,0.6-0.8
		s0.5-0.3,0.9-0.3c0.1,0,0.3,0,0.4,0c0.1,0,0.2,0.1,0.3,0.1l-0.1,0.6c0,0.1-0.1,0.1-0.1,0.1c0,0-0.1,0-0.2,0c-0.1,0-0.2,0-0.4,0
		c-0.3,0-0.5,0.1-0.7,0.3c-0.2,0.2-0.4,0.4-0.5,0.7v3.1H179.9z"/>
	<path class="st1" d="M185.7,86.7c0.4,0,0.7,0.1,1,0.2c0.3,0.1,0.5,0.3,0.7,0.5c0.2,0.2,0.3,0.5,0.5,0.8c0.1,0.3,0.2,0.6,0.2,1
		c0,0.4-0.1,0.7-0.2,1c-0.1,0.3-0.3,0.6-0.5,0.8c-0.2,0.2-0.4,0.4-0.7,0.5c-0.3,0.1-0.6,0.2-1,0.2s-0.7-0.1-1-0.2
		c-0.3-0.1-0.5-0.3-0.7-0.5c-0.2-0.2-0.4-0.5-0.5-0.8c-0.1-0.3-0.2-0.6-0.2-1c0-0.4,0.1-0.7,0.2-1c0.1-0.3,0.3-0.6,0.5-0.8
		c0.2-0.2,0.4-0.4,0.7-0.5S185.3,86.7,185.7,86.7z M185.7,91c0.5,0,0.8-0.2,1.1-0.5s0.4-0.8,0.4-1.3c0-0.6-0.1-1-0.4-1.3
		c-0.2-0.3-0.6-0.5-1.1-0.5c-0.2,0-0.4,0-0.6,0.1c-0.2,0.1-0.3,0.2-0.4,0.4c-0.1,0.2-0.2,0.3-0.3,0.6s-0.1,0.5-0.1,0.8
		s0,0.5,0.1,0.8s0.1,0.4,0.3,0.6c0.1,0.2,0.3,0.3,0.4,0.4C185.2,91,185.4,91,185.7,91z"/>
</g>
<g>
</g>
<g>
</g>
<g>
</g>
<g>
</g>
<g>
</g>
<g>
</g>
<g>
</g>
<g>
</g>
<g>
</g>
<g>
</g>
<g>
</g>
<g>
</g>
<g>
</g>
<g>
</g>
<g>
</g>
</svg>
