<?xml version="1.0" standalone="no"?>
<!DOCTYPE svg PUBLIC "-//W3C//DTD SVG 20010904//EN"
 "http://www.w3.org/TR/2001/REC-SVG-20010904/DTD/svg10.dtd">
<svg version="1.0" xmlns="http://www.w3.org/2000/svg"
 width="16.000000pt" height="16.000000pt" viewBox="0 0 16.000000 16.000000"
 preserveAspectRatio="xMidYMid meet">
<metadata>
Created by potrace 1.11, written by Peter Selinger 2001-2013
</metadata>
<g transform="translate(0.000000,16.000000) scale(0.001041,-0.001041)"
fill="#000000" stroke="none">
<path d="M570 9255 l0 -1356 668 3 c658 3 668 4 733 26 126 42 240 137 301
249 59 108 58 83 58 1083 0 981 1 960 -51 1067 -33 67 -160 192 -231 226 -117
56 -126 57 -830 57 l-648 0 0 -1355z m1050 0 l0 -835 -170 0 -170 0 0 835 0
835 170 0 170 0 0 -835z"/>
<path d="M2675 10598 c-3 -7 -4 -616 -3 -1353 l3 -1340 420 -3 c231 -2 588 0
793 4 l372 6 0 254 0 254 -440 0 -440 0 0 330 0 330 253 0 c138 0 296 3 350 7
l97 6 0 254 0 253 -350 0 -350 0 0 245 0 245 298 0 c163 0 361 3 440 7 l142 6
0 254 0 253 -790 0 c-623 0 -792 -3 -795 -12z"/>
<path d="M4850 10599 c-30 -5 -91 -27 -136 -49 -135 -66 -245 -202 -274 -337
-7 -31 -10 -216 -8 -508 l3 -460 29 -53 c36 -64 96 -121 168 -159 l53 -28 398
-3 397 -3 0 -290 0 -289 -175 0 -175 0 0 165 0 165 -351 0 -351 0 4 -232 3
-233 36 -75 c64 -133 184 -239 316 -280 61 -19 93 -20 518 -20 424 0 457 1
517 20 160 49 296 186 345 345 16 54 18 103 18 515 l0 455 -27 57 c-34 73
-103 142 -176 176 l-57 27 -398 3 -397 3 2 292 3 292 173 3 172 2 0 -170 0
-170 355 0 355 0 0 173 c0 94 -5 203 -10 242 -27 180 -159 336 -343 404 l-72
26 -430 2 c-236 1 -455 -3 -485 -8z"/>
<path d="M6447 10603 c-4 -3 -7 -118 -7 -255 l0 -248 220 0 220 0 0 -1095 0
-1095 355 0 355 0 0 1095 0 1095 220 0 220 0 -2 253 -3 252 -786 3 c-432 1
-789 -1 -792 -5z"/>
<path d="M8718 10600 c-172 -29 -320 -142 -392 -300 -45 -99 -47 -140 -44
-1090 l3 -895 23 -59 c61 -161 199 -289 357 -331 49 -12 136 -15 500 -15 267
0 458 5 485 11 124 28 273 143 332 255 59 111 58 85 58 1084 0 732 -3 925 -14
965 -49 185 -228 345 -416 375 -76 12 -822 12 -892 0z m620 -1342 l2 -838
-175 0 -175 0 0 840 0 840 173 -2 172 -3 3 -837z"/>
<path d="M10810 10599 c-129 -21 -271 -119 -350 -241 -74 -113 -71 -70 -68
-1128 l3 -945 37 -77 c62 -131 182 -237 313 -277 55 -17 104 -19 510 -22 498
-4 502 -3 628 63 61 33 174 144 203 199 55 107 57 126 62 447 l4 302 -356 0
-356 0 0 -250 0 -250 -175 0 -175 0 2 838 3 837 40 3 c22 2 100 1 173 -3 l132
-7 0 -249 0 -249 353 2 352 3 3 260 c2 161 -2 286 -9 328 -15 95 -67 194 -140
266 -75 75 -145 116 -245 141 -71 18 -109 20 -483 19 -223 -1 -431 -5 -461
-10z"/>
<path d="M12490 9255 l0 -1355 355 0 355 0 0 590 0 590 170 0 170 0 0 -590 0
-590 355 0 356 0 -3 723 -3 722 -25 50 c-29 60 -102 135 -158 164 -23 12 -65
26 -94 32 -29 6 -54 13 -56 14 -2 2 74 150 167 331 l171 327 0 174 0 173 -355
0 -355 0 0 -170 0 -169 -167 -322 -168 -322 -3 491 -2 492 -355 0 -355 0 0
-1355z"/>
<path d="M562 6248 l3 -1353 763 -3 762 -2 0 260 0 260 -420 0 -420 0 0 330 0
330 335 0 335 0 0 260 0 260 -335 0 -335 0 0 245 0 245 420 0 420 0 0 260 0
260 -765 0 -765 0 2 -1352z"/>
<path d="M2252 6443 c3 -1157 3 -1158 24 -1215 57 -148 185 -267 339 -315 54
-16 101 -18 480 -18 378 0 426 2 480 18 79 24 138 59 204 121 70 66 114 135
140 220 21 68 21 77 21 1207 l0 1139 -340 0 -340 0 0 -1095 0 -1095 -165 0
-165 0 0 1095 0 1095 -340 0 -340 0 2 -1157z"/>
<path d="M4270 6250 l0 -1350 340 0 340 0 1 498 0 497 164 -325 164 -325 0
-172 1 -173 340 0 340 0 0 170 0 170 -165 330 c-91 181 -165 332 -165 335 0 3
13 5 30 5 60 0 142 41 201 99 39 40 62 73 77 114 21 56 22 70 22 556 0 469 -1
503 -20 563 -46 150 -164 273 -319 331 -55 21 -72 22 -703 25 l-648 3 0 -1351z
m1010 505 l0 -335 -165 0 -165 0 0 335 0 335 165 0 165 0 0 -335z"/>
<path d="M6691 7585 c-88 -20 -155 -54 -225 -117 -70 -62 -117 -132 -146 -217
-20 -61 -20 -73 -18 -1019 l3 -957 23 -57 c51 -125 165 -239 290 -290 56 -23
63 -23 501 -26 423 -3 448 -2 512 17 121 37 232 129 295 244 60 111 58 73 61
1027 3 564 0 905 -6 960 -24 192 -152 353 -337 422 -57 21 -74 22 -474 25
-331 2 -428 -1 -479 -12z m617 -1337 l2 -838 -170 0 -170 0 0 833 c0 459 3
837 7 841 4 3 79 5 167 4 l161 -3 3 -837z"/>
<path d="M8320 6250 l0 -1350 340 0 340 0 0 420 0 420 280 0 c164 0 301 5 332
11 184 38 344 199 383 386 21 99 21 967 0 1066 -39 185 -197 343 -382 382 -55
12 -187 15 -680 15 l-613 0 0 -1350z m1010 420 l0 -420 -165 0 -165 0 0 420 0
420 165 0 165 0 0 -420z"/>
<path d="M10340 6250 l0 -1350 303 0 c166 0 508 -3 760 -7 l457 -6 0 261 0
262 -420 0 -420 0 0 336 0 337 338 -4 337 -4 0 255 0 255 -337 3 -338 2 0 252
0 251 420 -8 420 -7 0 261 0 261 -760 0 -760 0 0 -1350z"/>
<path d="M12465 5731 c-47 -12 -84 -41 -106 -83 -19 -37 -20 -56 -17 -361 3
-322 3 -322 27 -356 41 -57 86 -71 241 -71 110 0 143 4 176 19 79 36 107 99
102 234 l-3 82 -110 0 -110 0 -3 -82 -3 -83 -49 0 -50 0 0 265 0 265 50 0 50
0 0 -80 0 -81 113 3 112 3 0 105 c0 87 -3 111 -20 139 -26 44 -62 70 -111 81
-46 11 -245 11 -289 1z"/>
<path d="M13111 5731 c-44 -12 -81 -40 -106 -82 -19 -32 -20 -55 -23 -326 -3
-320 1 -352 49 -408 41 -46 79 -55 234 -55 116 0 136 3 175 23 25 12 55 37 67
56 23 33 23 38 23 353 0 361 -1 369 -73 416 -38 25 -48 27 -176 29 -75 1 -151
-2 -170 -6z m199 -436 l0 -265 -50 0 -50 0 0 265 0 265 50 0 50 0 0 -265z"/>
<path d="M13630 5300 l0 -440 115 0 115 0 1 178 0 177 75 -147 c41 -82 76
-148 79 -148 3 0 38 66 79 148 l75 147 0 -177 1 -178 115 0 115 0 -2 438 -3
437 -97 3 -98 3 -94 -188 -94 -188 -93 188 -94 187 -97 0 -98 0 0 -440z"/>
<path d="M12014 5077 c-2 -7 -3 -58 -2 -113 l3 -99 113 -3 112 -3 0 116 0 115
-110 0 c-83 0 -112 -3 -116 -13z"/>
</g>
</svg>
