<?xml version="1.0" standalone="no"?>
<!DOCTYPE svg PUBLIC "-//W3C//DTD SVG 20010904//EN"
 "http://www.w3.org/TR/2001/REC-SVG-20010904/DTD/svg10.dtd">
<svg version="1.0" xmlns="http://www.w3.org/2000/svg"
 width="1552.000000pt" height="1552.000000pt" viewBox="0 0 1552.000000 1552.000000"
 preserveAspectRatio="xMidYMid meet">
<metadata>
Created by potrace 1.11, written by Peter Selinger 2001-2013
</metadata>
<g transform="translate(0.000000,1552.000000) scale(0.100000,-0.100000)"
fill="#000000" stroke="none">
<path d="M577 10714 c-4 -4 -7 -621 -7 -1371 l0 -1363 653 0 c511 1 666 4 715
14 194 42 362 207 401 394 15 74 15 1851 0 1923 -38 176 -179 323 -369 385
-50 17 -112 18 -720 22 -366 2 -669 0 -673 -4z m1053 -1369 l0 -845 -170 0
-170 0 0 845 0 845 170 0 170 0 0 -845z"/>
<path d="M2702 10710 c-4 -3 -6 -618 -4 -1368 l4 -1362 796 2 797 3 0 255 0
255 -442 3 -443 2 0 335 0 335 353 2 352 3 3 258 2 257 -355 0 -355 0 2 253 3
252 443 3 442 2 0 255 0 255 -796 2 c-438 2 -799 1 -802 -2z"/>
<path d="M12707 10713 l-97 -4 2 -1362 3 -1362 358 -3 357 -2 0 595 0 595 170
0 170 0 2 -592 3 -593 360 0 360 0 0 715 0 715 -29 63 c-51 111 -188 212 -287
212 -20 0 -29 4 -27 13 2 7 81 162 176 344 l172 331 0 165 c0 141 -2 166 -16
171 -9 3 -166 6 -349 6 -183 0 -340 -3 -349 -6 -14 -5 -16 -31 -16 -179 l0
-173 -167 -323 -168 -322 -5 499 -5 499 -260 0 c-143 1 -304 -1 -358 -2z"/>
<path d="M4844 10691 c-174 -50 -328 -213 -364 -384 -7 -36 -10 -203 -8 -508
l3 -454 25 -49 c28 -56 105 -138 153 -163 76 -39 120 -43 505 -43 l372 0 0
-295 0 -295 -175 0 -175 0 0 170 0 170 -355 0 -355 0 0 -200 c0 -109 5 -223
11 -252 30 -143 135 -275 276 -345 120 -60 176 -65 654 -61 390 4 406 5 469
27 169 60 293 183 340 340 20 63 20 89 18 536 -3 466 -3 470 -26 516 -29 60
-103 134 -163 165 -74 37 -155 44 -526 44 l-343 0 0 295 0 295 175 0 175 0 0
-170 0 -170 355 0 355 0 0 214 c0 184 -3 223 -20 277 -50 163 -196 299 -365
344 -49 12 -135 15 -505 14 -392 0 -452 -2 -506 -18z"/>
<path d="M6510 10455 l0 -255 220 0 220 0 2 -1107 3 -1108 350 0 350 0 3 1108
2 1107 220 0 220 0 0 255 0 255 -795 0 -795 0 0 -255z"/>
<path d="M8751 10694 c-166 -45 -312 -183 -361 -343 -19 -61 -20 -97 -20
-1001 0 -911 1 -940 20 -1003 52 -167 205 -308 381 -349 80 -19 893 -18 969 1
84 21 185 78 248 140 65 63 124 169 141 249 8 37 11 336 11 965 0 992 1 966
-56 1079 -32 63 -119 156 -185 199 -27 17 -83 42 -124 55 -75 24 -78 24 -523
23 -357 0 -458 -3 -501 -15z m679 -1344 l0 -850 -175 0 -175 0 0 850 0 850
175 0 175 0 0 -850z"/>
<path d="M10863 10691 c-169 -48 -320 -205 -357 -371 -23 -102 -24 -1841 -1
-1939 45 -190 208 -344 407 -385 63 -13 150 -16 468 -16 434 0 493 6 604 62
85 43 194 154 234 238 45 97 52 156 52 457 l0 273 -360 0 -360 0 0 -255 0
-255 -175 0 -175 0 2 848 3 847 173 3 172 2 0 -254 0 -254 153 -7 c83 -3 244
-5 357 -3 l205 3 3 265 c4 300 -4 372 -51 470 -41 85 -150 194 -232 234 -113
55 -123 56 -610 55 -400 0 -457 -2 -512 -18z"/>
<path d="M567 7673 c-4 -3 -7 -620 -7 -1370 l0 -1363 775 0 775 0 0 260 0 260
-425 0 -425 0 0 335 0 335 338 2 337 3 0 255 0 255 -337 3 -338 2 0 250 0 250
423 2 422 3 3 254 c2 197 -1 256 -10 263 -15 9 -1522 11 -1531 1z"/>
<path d="M2270 6522 c0 -1254 -2 -1204 58 -1316 38 -71 145 -175 214 -208 114
-56 137 -58 578 -58 440 0 467 3 579 57 75 36 181 143 220 222 62 123 61 87
61 1324 l0 1127 -345 0 -345 0 0 -1105 0 -1105 -165 0 -165 0 0 1105 0 1105
-345 0 -345 0 0 -1148z"/>
<path d="M4310 6305 l0 -1365 345 0 345 0 1 503 0 502 162 -320 162 -320 5
-180 5 -180 343 -3 342 -2 0 173 0 173 -170 337 c-109 217 -165 339 -157 342
6 2 29 6 50 9 92 12 201 99 246 196 l26 55 3 492 c3 544 1 571 -59 684 -40 74
-134 168 -208 208 -116 61 -113 61 -808 61 l-633 0 0 -1365z m1020 515 l0
-340 -165 0 -165 0 0 340 0 340 165 0 165 0 0 -340z"/>
<path d="M6740 7654 c-30 -8 -80 -27 -110 -42 -67 -33 -175 -139 -212 -208
-59 -110 -58 -82 -58 -1104 0 -827 2 -943 16 -991 51 -173 206 -317 381 -354
83 -18 779 -21 882 -5 193 32 353 179 407 375 21 75 20 1885 -1 1964 -49 184
-210 336 -394 371 -31 6 -222 10 -455 9 -318 0 -412 -3 -456 -15z m640 -1344
l0 -850 -170 0 -170 0 0 850 0 850 170 0 170 0 0 -850z"/>
<path d="M8400 6305 l0 -1365 340 0 340 0 0 425 0 425 254 0 c140 0 290 5 333
11 222 30 404 211 433 430 12 96 12 901 0 999 -25 199 -188 381 -380 424 -59
14 -164 16 -694 16 l-626 0 0 -1365z m1020 430 l0 -425 -170 0 -170 0 0 418
c0 230 3 422 7 425 3 4 80 7 170 7 l163 0 0 -425z"/>
<path d="M10440 6305 l0 -1365 770 0 770 0 0 260 0 260 -425 0 -425 0 0 335 0
335 340 0 340 0 0 260 0 260 -340 0 -340 0 2 253 3 252 420 0 420 0 3 258 2
257 -770 0 -770 0 0 -1365z"/>
<path d="M12565 5776 c-38 -17 -80 -62 -94 -99 -7 -18 -11 -141 -11 -330 0
-338 4 -360 71 -408 32 -23 44 -24 193 -27 174 -4 196 1 244 51 38 41 52 91
52 195 l0 82 -115 0 -115 0 0 -80 0 -80 -50 0 -50 0 0 271 0 270 48 -3 47 -3
3 -83 3 -83 112 3 112 3 -1 105 c0 120 -12 152 -71 197 -36 28 -39 28 -192 31
-116 1 -164 -1 -186 -12z"/>
<path d="M13215 5776 c-41 -18 -82 -68 -95 -117 -7 -26 -10 -146 -8 -338 l3
-298 25 -36 c13 -20 42 -45 62 -57 35 -20 50 -21 201 -18 151 3 164 5 195 26
18 13 41 41 52 62 19 37 20 60 20 348 0 303 0 310 -23 352 -16 30 -37 51 -67
67 -39 21 -56 23 -189 23 -99 -1 -156 -5 -176 -14z m225 -431 l0 -265 -50 0
-50 0 0 265 0 265 50 0 50 0 0 -265z"/>
<path d="M13770 5350 l0 -440 115 0 115 0 1 173 0 172 72 -142 c39 -79 76
-143 82 -143 5 0 43 66 82 148 l73 147 0 -177 0 -178 115 0 115 0 0 440 0 440
-100 0 -100 0 -93 -185 -93 -186 -93 186 -94 185 -98 0 -99 0 0 -440z"/>
<path d="M12130 5020 l0 -110 115 0 115 0 0 110 0 110 -115 0 -115 0 0 -110z"/>
</g>
</svg>
