<?xml version="1.0" encoding="utf-8"?>
<!-- Generator: Adobe Illustrator 17.0.0, SVG Export Plug-In . SVG Version: 6.00 Build 0)  -->
<!DOCTYPE svg PUBLIC "-//W3C//DTD SVG 1.1//EN" "http://www.w3.org/Graphics/SVG/1.1/DTD/svg11.dtd">
<svg version="1.1" id="Calque_1" xmlns="http://www.w3.org/2000/svg" xmlns:xlink="http://www.w3.org/1999/xlink" x="0px" y="0px"
	 width="89.89px" height="59.973px" viewBox="0 0 89.89 59.973" style="enable-background:new 0 0 89.89 59.973;"
	 xml:space="preserve">
<style type="text/css">
	.st0{fill:#FFFFFF;}
	.st1{fill:#1A171B;}
	.st2{fill:#0B458F;}
	.st3{fill:#0C3183;}
	.st4{fill:#FFDD00;}
	.st5{opacity:0.7;fill:url(#SVGID_1_);mix-blend-mode: multiply}
</style>
<polygon class="st2" points="0.132,60.336 0.224,60.336 0.132,60.199 "/>
<g>
	<polygon class="st3" points="59.902,0.1 30.017,0.1 0.131,0.1 0.131,59.873 30.017,59.873 59.902,59.873 89.789,59.873 89.789,0.1 
			"/>
	<g>
		<polygon class="st4" points="44.791,50.201 45.802,52.248 48.062,52.576 46.425,54.17 46.814,56.422 44.791,55.359 42.771,56.422 
			43.156,54.17 41.521,52.576 43.781,52.248 		"/>
	</g>
	<g>
		<polygon class="st4" points="33.203,46.771 34.213,48.818 36.474,49.146 34.838,50.74 35.226,52.992 33.203,51.93 31.181,52.992 
			31.568,50.74 29.933,49.146 32.191,48.818 		"/>
	</g>
	<g>
		<polygon class="st4" points="24.697,38.223 25.707,40.271 27.966,40.6 26.332,42.193 26.718,44.443 24.697,43.381 22.675,44.443 
			23.06,42.193 21.425,40.6 23.685,40.271 		"/>
	</g>
	<g>
		<polygon class="st4" points="21.627,26.676 22.638,28.723 24.898,29.051 23.261,30.645 23.65,32.896 21.627,31.834 19.605,32.896 
			19.992,30.645 18.357,29.051 20.617,28.723 		"/>
	</g>
	<g>
		<polygon class="st4" points="24.709,15.127 25.72,17.175 27.98,17.504 26.343,19.098 26.732,21.348 24.709,20.285 22.687,21.348 
			23.074,19.098 21.439,17.504 23.699,17.175 		"/>
	</g>
	<g>
		<polygon class="st4" points="33.174,6.662 34.185,8.709 36.445,9.038 34.81,10.632 35.197,12.883 33.174,11.82 31.154,12.883 
			31.539,10.632 29.904,9.038 32.164,8.709 		"/>
	</g>
	<g>
		<polygon class="st4" points="56.394,46.771 55.382,48.818 53.123,49.146 54.757,50.74 54.371,52.992 56.394,51.93 58.414,52.992 
			58.029,50.74 59.664,49.146 57.404,48.818 		"/>
	</g>
	<g>
		<polygon class="st4" points="64.9,38.223 63.888,40.271 61.629,40.6 63.265,42.193 62.877,44.443 64.9,43.381 66.922,44.443 
			66.535,42.193 68.17,40.6 65.91,40.271 		"/>
	</g>
	<g>
		<polygon class="st4" points="67.968,26.676 66.959,28.723 64.699,29.051 66.334,30.645 65.947,32.896 67.968,31.834 69.99,32.896 
			69.603,30.645 71.238,29.051 68.98,28.723 		"/>
	</g>
	<g>
		<polygon class="st4" points="64.886,15.127 63.877,17.175 61.617,17.504 63.252,19.098 62.865,21.348 64.886,20.285 
			66.908,21.348 66.521,19.098 68.156,17.504 65.898,17.175 		"/>
	</g>
	<g>
		<polygon class="st4" points="56.422,6.662 55.412,8.709 53.15,9.038 54.787,10.632 54.398,12.883 56.422,11.82 58.443,12.883 
			58.056,10.632 59.691,9.038 57.431,8.709 		"/>
	</g>
	<g>
		<polygon class="st4" points="44.791,3.551 45.802,5.6 48.062,5.928 46.425,7.521 46.814,9.771 44.791,8.709 42.771,9.771 
			43.156,7.521 41.521,5.928 43.781,5.6 		"/>
	</g>
</g>
<linearGradient id="SVGID_1_" gradientUnits="userSpaceOnUse" x1="-3.3077" y1="52.4947" x2="93.2308" y2="7.478">
	<stop  offset="0" style="stop-color:#707173"/>
	<stop  offset="0.0289" style="stop-color:#9A9B9C"/>
	<stop  offset="0.0577" style="stop-color:#BCBDBE"/>
	<stop  offset="0.0814" style="stop-color:#D1D2D3"/>
	<stop  offset="0.097" style="stop-color:#D9DADB"/>
	<stop  offset="0.1453" style="stop-color:#F1F1F2"/>
	<stop  offset="0.1697" style="stop-color:#FFFFFF"/>
	<stop  offset="0.1701" style="stop-color:#FFFFFF"/>
	<stop  offset="0.239" style="stop-color:#BEBFC0"/>
	<stop  offset="0.2892" style="stop-color:#969799"/>
	<stop  offset="0.3152" style="stop-color:#87888A"/>
	<stop  offset="0.3396" style="stop-color:#8B8C8E"/>
	<stop  offset="0.3659" style="stop-color:#98989A"/>
	<stop  offset="0.393" style="stop-color:#AEADAE"/>
	<stop  offset="0.4206" style="stop-color:#CCC9CA"/>
	<stop  offset="0.4303" style="stop-color:#D8D5D5"/>
	<stop  offset="0.4727" style="stop-color:#FFFFFF"/>
	<stop  offset="0.4857" style="stop-color:#F4F4F4"/>
	<stop  offset="0.528" style="stop-color:#D6D5D5"/>
	<stop  offset="0.5515" style="stop-color:#CAC9C9"/>
	<stop  offset="0.6182" style="stop-color:#9C9E9F"/>
	<stop  offset="0.6484" style="stop-color:#9FA1A2"/>
	<stop  offset="0.6735" style="stop-color:#AAACAD"/>
	<stop  offset="0.6848" style="stop-color:#B1B3B4"/>
	<stop  offset="0.7636" style="stop-color:#FFFFFF"/>
	<stop  offset="0.8689" style="stop-color:#AEAEAF"/>
	<stop  offset="0.9579" style="stop-color:#707072"/>
	<stop  offset="1" style="stop-color:#58585A"/>
</linearGradient>
<polygon class="st5" points="59.904,0.101 30.019,0.101 0.132,0.101 0.132,59.872 30.019,59.872 59.904,59.872 89.791,59.872 
	89.791,0.101 "/>
</svg>
