<?xml version="1.0" encoding="utf-8"?>
<!-- Generator: Adobe Illustrator 17.0.0, SVG Export Plug-In . SVG Version: 6.00 Build 0)  -->
<!DOCTYPE svg PUBLIC "-//W3C//DTD SVG 1.1//EN" "http://www.w3.org/Graphics/SVG/1.1/DTD/svg11.dtd">
<svg version="1.1" id="Calque_1" xmlns="http://www.w3.org/2000/svg" xmlns:xlink="http://www.w3.org/1999/xlink" x="0px" y="0px"
	 width="89.89px" height="59.973px" viewBox="0 0 89.89 59.973" style="enable-background:new 0 0 89.89 59.973;"
	 xml:space="preserve">
<style type="text/css">
	.st0{fill:#FFFFFF;}
	.st1{fill:#1A171B;}
	.st2{fill:#E2001A;}
	.st3{fill:#0C3183;}
	.st4{opacity:0.7;fill:url(#SVGID_1_);mix-blend-mode: multiply}
</style>
<rect x="0.132" y="20.52" class="st0" width="89.658" height="18.945"/>
<rect x="35.489" y="0.117" class="st0" width="18.945" height="59.76"/>
<rect x="0.133" y="24.106" class="st2" width="89.657" height="11.772"/>
<rect x="39.804" y="0.117" class="st2" width="10.315" height="59.77"/>
<polygon class="st3" points="89.791,20.52 89.791,5.663 67.139,20.52 "/>
<g>
	<polygon class="st0" points="58.808,20.52 67.139,20.52 89.791,5.663 89.791,0.2 	"/>
	<polygon class="st0" points="54.435,20.52 54.733,20.52 85.858,0.106 83.023,0.106 54.435,18.855 	"/>
	<polygon class="st2" points="89.791,0.2 89.791,0.106 85.858,0.106 54.733,20.52 58.808,20.52 	"/>
</g>
<polygon class="st3" points="59.904,0.106 54.435,0.106 54.435,0.107 54.435,18.855 83.023,0.106 "/>
<polygon class="st3" points="89.791,39.464 89.791,54.321 67.139,39.464 "/>
<g>
	<polygon class="st0" points="58.808,39.464 67.139,39.464 89.791,54.321 89.791,59.783 	"/>
	<polygon class="st0" points="54.435,39.464 54.733,39.464 85.858,59.877 83.023,59.877 54.435,41.129 	"/>
	<polygon class="st2" points="89.791,59.783 89.791,59.877 85.858,59.877 54.733,39.464 58.808,39.464 	"/>
</g>
<polygon class="st3" points="59.904,59.877 54.435,59.877 54.435,59.877 54.435,41.129 83.023,59.877 "/>
<polygon class="st3" points="0.131,39.464 0.131,54.321 22.783,39.464 "/>
<g>
	<polygon class="st0" points="31.113,39.464 22.783,39.464 0.131,54.321 0.131,59.783 	"/>
	<polygon class="st0" points="35.487,39.464 35.188,39.464 4.063,59.877 6.898,59.877 35.487,41.129 	"/>
	<polygon class="st2" points="0.131,59.783 0.131,59.877 4.063,59.877 35.188,39.464 31.113,39.464 	"/>
</g>
<polygon class="st3" points="30.017,59.877 35.487,59.877 35.487,59.877 35.487,41.129 6.898,59.877 "/>
<polygon class="st3" points="0.131,20.52 0.131,5.663 22.783,20.52 "/>
<g>
	<polygon class="st0" points="31.113,20.52 22.783,20.52 0.131,5.663 0.131,0.2 	"/>
	<polygon class="st0" points="35.487,20.52 35.188,20.52 4.063,0.106 6.898,0.106 35.487,18.855 	"/>
	<polygon class="st2" points="0.131,0.2 0.131,0.106 4.063,0.106 35.188,20.52 31.113,20.52 	"/>
</g>
<polygon class="st3" points="30.017,0.106 35.487,0.106 35.487,0.107 35.487,18.855 6.898,0.106 "/>
<linearGradient id="SVGID_1_" gradientUnits="userSpaceOnUse" x1="-3.3084" y1="52.4945" x2="93.2307" y2="7.4777">
	<stop  offset="0" style="stop-color:#707173"/>
	<stop  offset="0.0289" style="stop-color:#9A9B9C"/>
	<stop  offset="0.0577" style="stop-color:#BCBDBE"/>
	<stop  offset="0.0814" style="stop-color:#D1D2D3"/>
	<stop  offset="0.097" style="stop-color:#D9DADB"/>
	<stop  offset="0.1453" style="stop-color:#F1F1F2"/>
	<stop  offset="0.1697" style="stop-color:#FFFFFF"/>
	<stop  offset="0.1701" style="stop-color:#FFFFFF"/>
	<stop  offset="0.239" style="stop-color:#BEBFC0"/>
	<stop  offset="0.2892" style="stop-color:#969799"/>
	<stop  offset="0.3152" style="stop-color:#87888A"/>
	<stop  offset="0.3396" style="stop-color:#8B8C8E"/>
	<stop  offset="0.3659" style="stop-color:#98989A"/>
	<stop  offset="0.393" style="stop-color:#AEADAE"/>
	<stop  offset="0.4206" style="stop-color:#CCC9CA"/>
	<stop  offset="0.4303" style="stop-color:#D8D5D5"/>
	<stop  offset="0.4727" style="stop-color:#FFFFFF"/>
	<stop  offset="0.4857" style="stop-color:#F4F4F4"/>
	<stop  offset="0.528" style="stop-color:#D6D5D5"/>
	<stop  offset="0.5515" style="stop-color:#CAC9C9"/>
	<stop  offset="0.6182" style="stop-color:#9C9E9F"/>
	<stop  offset="0.6484" style="stop-color:#9FA1A2"/>
	<stop  offset="0.6735" style="stop-color:#AAACAD"/>
	<stop  offset="0.6848" style="stop-color:#B1B3B4"/>
	<stop  offset="0.7636" style="stop-color:#FFFFFF"/>
	<stop  offset="0.8689" style="stop-color:#AEAEAF"/>
	<stop  offset="0.9579" style="stop-color:#707072"/>
	<stop  offset="1" style="stop-color:#58585A"/>
</linearGradient>
<polygon class="st4" points="59.904,0.099 30.018,0.099 0.132,0.099 0.132,59.873 30.018,59.873 59.904,59.873 89.79,59.873 
	89.79,0.099 "/>
</svg>
