<?xml version="1.0" encoding="utf-8"?>
<!-- Generator: Adobe Illustrator 17.0.0, SVG Export Plug-In . SVG Version: 6.00 Build 0)  -->
<!DOCTYPE svg PUBLIC "-//W3C//DTD SVG 1.1//EN" "http://www.w3.org/Graphics/SVG/1.1/DTD/svg11.dtd">
<svg version="1.1" id="Calque_1" xmlns="http://www.w3.org/2000/svg" xmlns:xlink="http://www.w3.org/1999/xlink" x="0px" y="0px"
	 width="89.89px" height="59.973px" viewBox="0 0 89.89 59.973" style="enable-background:new 0 0 89.89 59.973;"
	 xml:space="preserve">
<style type="text/css">
	.st0{fill:#FFFFFF;}
	.st1{fill:#1A171B;}
	.st2{fill:#006600;}
	.st3{fill:#FF0000;}
	.st4{clip-path:url(#SVGID_2_);}
	.st5{fill:#FFDD00;stroke:#000000;stroke-width:0.0753;}
	.st6{fill:#FFDD00;stroke:#1A171B;stroke-width:0.0753;}
	.st7{fill:none;stroke:#1A171B;stroke-width:0.0753;}
	.st8{fill:#FFFFFF;stroke:#000000;stroke-width:0.1534;}
	.st9{fill:#FF0000;stroke:#000000;stroke-width:0.1534;}
	.st10{fill:#003399;}
	.st11{fill:#FFDD00;stroke:#1A171B;stroke-width:0.0325;stroke-linecap:round;stroke-linejoin:round;}
	.st12{fill:#FFDD00;stroke:#1A171B;stroke-width:0.0307;stroke-linecap:round;stroke-linejoin:round;}
	.st13{fill:#FFDD00;stroke:#1A171B;stroke-width:0.046;stroke-linecap:round;stroke-linejoin:round;}
	.st14{opacity:0.7;fill:url(#SVGID_3_);mix-blend-mode: multiply}
</style>
<rect x="0.132" y="-0.002" class="st2" width="35.621" height="59.771"/>
<rect x="35.753" y="-0.002" class="st3" width="54.037" height="59.771"/>
<g>
	<g>
		<defs>
			<path id="SVGID_1_" d="M39.514,14.91c-5.835-1.529-11.76,0.649-15.313,5.061c-0.521,0.648-0.985,1.348-1.396,2.088
				c-0.59,1.064-1.073,2.205-1.396,3.436C19.331,33.418,24.07,41.523,31.993,43.6c6.38,1.672,12.872-1.08,16.246-6.35
				c0.419-0.654,0.779-1.354,1.096-2.084c0.299-0.689,0.566-1.4,0.762-2.15C52.174,25.096,47.436,16.988,39.514,14.91z"/>
		</defs>
		<clipPath id="SVGID_2_">
			<use xlink:href="#SVGID_1_"  style="overflow:visible;"/>
		</clipPath>
		<g class="st4">
			<g>
				<g>
					<path class="st5" d="M32.476,31.439c8.642,5.227,21.541,7.658,32.003,5.996c0.326-0.844,0.602-1.713,0.831-2.607
						c-10.337,1.658-23.138-0.631-31.819-5.674c-4.033-2.363-7.474-4.934-10.374-7.649c0.026-0.213,0.059-0.424,0.09-0.635
						c-0.109-0.105-0.218-0.209-0.326-0.314c-0.286,0.959-0.499,1.951-0.662,2.965C25.076,26.322,28.46,28.99,32.476,31.439z"/>
					<path class="st5" d="M32.41,31.922c8.648,5.17,21.473,7.627,31.847,6.08c0.078-0.188,0.149-0.377,0.222-0.566
						c-10.462,1.662-23.361-0.77-32.003-5.996c-4.016-2.449-7.4-5.117-10.256-7.918c-0.033,0.207-0.066,0.412-0.096,0.621
						C24.994,26.892,28.405,29.508,32.41,31.922z"/>
					<path class="st5" d="M33.491,29.154c8.681,5.043,21.482,7.332,31.819,5.674c0.046-0.176,0.093-0.352,0.135-0.529
						c-10.487,1.773-23.502-0.598-32.219-5.816c-3.901-2.356-7.21-4.92-10.02-7.611c-0.031,0.211-0.063,0.422-0.09,0.635
						C26.018,24.221,29.458,26.791,33.491,29.154z"/>
				</g>
				<g>
					<path class="st5" d="M41.38,39.334c-5.787,0.926-14.374-0.15-21.308-2.689c-0.209-0.441-0.383-0.889-0.528-1.336
						c6.849,2.514,15.372,3.641,21.183,2.807c2.699-0.398,5.007-0.992,6.958-1.742c-0.016-0.102-0.035-0.205-0.054-0.307
						c0.074-0.029,0.147-0.059,0.219-0.088c0.182,0.488,0.314,0.979,0.413,1.471C46.341,38.246,44.07,38.893,41.38,39.334z"/>
					<path class="st5" d="M41.42,39.566c-5.791,0.898-14.33-0.156-21.205-2.627c-0.05-0.098-0.096-0.197-0.142-0.295
						c6.933,2.539,15.521,3.615,21.308,2.689c2.689-0.441,4.96-1.088,6.883-1.885c0.02,0.1,0.041,0.199,0.058,0.299
						C46.391,38.521,44.102,39.141,41.42,39.566z"/>
					<path class="st5" d="M40.727,38.115c-5.81,0.834-14.333-0.293-21.183-2.807c-0.029-0.09-0.059-0.178-0.085-0.268
						c6.949,2.596,15.613,3.721,21.449,2.811c2.612-0.416,4.833-1.027,6.723-1.785c0.02,0.102,0.039,0.205,0.054,0.307
						C45.734,37.123,43.426,37.717,40.727,38.115z"/>
				</g>
				<g>
					<path class="st5" d="M42.884,32.668c-6.135,0.996-15.234-0.133-22.576-2.818c-0.221-0.471-0.405-0.943-0.557-1.42
						c7.253,2.66,16.283,3.842,22.443,2.941c2.861-0.428,5.309-1.064,7.378-1.865c-0.017-0.109-0.038-0.217-0.057-0.326
						c0.078-0.031,0.156-0.063,0.232-0.096c0.191,0.52,0.331,1.041,0.434,1.564C48.143,31.5,45.734,32.191,42.884,32.668z"/>
					<path class="st5" d="M42.925,32.914c-6.137,0.967-15.186-0.135-22.467-2.75c-0.053-0.103-0.1-0.209-0.15-0.314
						c7.342,2.685,16.441,3.814,22.576,2.818c2.851-0.477,5.26-1.168,7.298-2.019c0.021,0.107,0.043,0.211,0.061,0.318
						C48.195,31.793,45.768,32.457,42.925,32.914z"/>
					<path class="st5" d="M42.194,31.371c-6.16,0.9-15.19-0.281-22.443-2.941c-0.03-0.096-0.062-0.188-0.089-0.283
						c7.358,2.746,16.539,3.924,22.726,2.945c2.769-0.449,5.123-1.104,7.128-1.912c0.02,0.109,0.04,0.217,0.057,0.326
						C47.503,30.307,45.056,30.943,42.194,31.371z"/>
				</g>
				<g>
					<path class="st5" d="M35.467,25c4.611-0.291,9.703-1.314,14.124-2.932c0.209-0.441,0.384-0.889,0.529-1.338
						c-4.574,1.682-9.893,2.74-14.652,3.01V25z"/>
					<path class="st5" d="M35.467,25.217c4.578-0.287,9.615-1.283,13.982-2.854c0.05-0.098,0.095-0.197,0.142-0.295
						c-4.42,1.617-9.513,2.641-14.124,2.932V25.217z"/>
					<path class="st5" d="M35.467,23.521v0.219c4.76-0.269,10.078-1.328,14.652-3.01c0.028-0.088,0.059-0.176,0.084-0.266
						C45.603,22.182,40.252,23.256,35.467,23.521z"/>
				</g>
				<g>
					<path class="st6" d="M39.457,14.861c-5.834-1.531-11.76,0.646-15.312,5.059c-0.521,0.648-0.986,1.348-1.397,2.088
						c-0.59,1.063-1.073,2.205-1.396,3.435c-2.076,7.924,2.661,16.029,10.584,18.106c6.38,1.672,12.873-1.08,16.247-6.35
						c0.418-0.654,0.78-1.355,1.096-2.082c0.299-0.691,0.565-1.402,0.762-2.152C52.118,25.045,47.38,16.938,39.457,14.861z
						 M48.469,32.553c-0.176,0.668-0.413,1.301-0.679,1.914c-0.282,0.65-0.604,1.273-0.976,1.855
						c-3.004,4.691-8.784,7.143-14.464,5.654c-7.053-1.85-11.272-9.066-9.423-16.121c0.288-1.096,0.717-2.111,1.243-3.059
						c0.367-0.658,0.78-1.281,1.244-1.859c3.163-3.928,8.438-5.865,13.633-4.504C46.099,18.283,50.317,25.502,48.469,32.553z"/>
					<path class="st7" d="M39.384,15.141c-5.721-1.5-11.53,0.635-15.013,4.961c-0.511,0.635-0.966,1.32-1.369,2.047
						c-0.579,1.043-1.052,2.162-1.369,3.369c-2.036,7.768,2.609,15.713,10.377,17.75c6.255,1.639,12.62-1.059,15.928-6.225
						c0.41-0.642,0.764-1.328,1.075-2.043c0.293-0.676,0.554-1.373,0.747-2.109C51.796,25.125,47.151,17.178,39.384,15.141z"/>
					<path class="st7" d="M39.118,16.158c-5.307-1.393-10.697,0.588-13.928,4.601c-0.474,0.588-0.896,1.225-1.27,1.899
						c-0.537,0.969-0.976,2.008-1.27,3.125c-1.889,7.207,2.421,14.578,9.627,16.469c5.803,1.521,11.708-0.982,14.777-5.775
						c0.38-0.596,0.709-1.232,0.997-1.896c0.272-0.627,0.515-1.271,0.693-1.955C50.633,25.42,46.324,18.047,39.118,16.158z"/>
				</g>
				<g>
					<path class="st5" d="M43.202,19.316c-5.423-1.039-13.783-0.467-20.741,1.435c-0.255,0.373-0.479,0.752-0.673,1.131
						c6.875-1.887,15.176-2.504,20.636-1.541c2.535,0.455,4.67,1.063,6.443,1.791c-0.028,0.088-0.059,0.176-0.09,0.264
						c0.067,0.027,0.133,0.057,0.199,0.084c0.235-0.412,0.423-0.83,0.58-1.252C47.816,20.461,45.723,19.809,43.202,19.316z"/>
					<path class="st5" d="M43.269,19.117c-5.43-1.016-13.739-0.461-20.634,1.385c-0.06,0.082-0.116,0.166-0.174,0.25
						c6.958-1.902,15.317-2.475,20.741-1.435c2.52,0.492,4.614,1.145,6.354,1.912c0.032-0.084,0.064-0.17,0.094-0.256
						C47.898,20.225,45.784,19.596,43.269,19.117z"/>
					<path class="st5" d="M42.424,20.342c-5.459-0.963-13.761-0.346-20.636,1.541c-0.039,0.076-0.079,0.15-0.115,0.226
						c6.98-1.951,15.418-2.561,20.891-1.535c2.449,0.469,4.497,1.09,6.213,1.822c0.031-0.088,0.062-0.176,0.09-0.264
						C47.094,21.404,44.959,20.797,42.424,20.342z"/>
				</g>
				<g>
					<path class="st5" d="M44.598,26.41c-6.215-1.004-15.94-0.287-24.132,1.795c-0.321,0.393-0.606,0.789-0.858,1.188
						c8.096-2.063,17.758-2.824,24.018-1.902c2.905,0.44,5.339,1.043,7.345,1.775c-0.038,0.092-0.081,0.184-0.123,0.275
						c0.075,0.027,0.15,0.057,0.224,0.084c0.301-0.434,0.548-0.871,0.758-1.311C49.867,27.537,47.485,26.889,44.598,26.41z"/>
					<path class="st5" d="M44.689,26.203c-6.224-0.98-15.89-0.283-24.005,1.74c-0.075,0.086-0.146,0.174-0.218,0.262
						c8.192-2.082,17.917-2.799,24.132-1.795c2.887,0.478,5.269,1.127,7.232,1.904c0.042-0.09,0.086-0.182,0.125-0.269
						C49.977,27.291,47.57,26.666,44.689,26.203z"/>
					<path class="st5" d="M43.626,27.49c-6.26-0.922-15.922-0.16-24.018,1.902c-0.05,0.078-0.101,0.158-0.148,0.238
						c8.221-2.133,18.041-2.889,24.313-1.898c2.806,0.453,5.138,1.07,7.076,1.809c0.042-0.092,0.085-0.184,0.123-0.275
						C48.965,28.533,46.531,27.93,43.626,27.49z"/>
				</g>
				<path class="st5" d="M29.05,35.004c1.841-0.477,4.04-0.791,6.416-0.945V33.01c-2.712,0.148-5.22,0.504-7.264,1.064
					c-2.418,0.674-4.406,1.469-6.039,2.348c0.188,0.393,0.409,0.781,0.673,1.162c0.062-0.033,0.124-0.064,0.187-0.098
					c-0.038-0.082-0.076-0.164-0.11-0.246C24.582,36.398,26.615,35.643,29.05,35.004z"/>
				<path class="st5" d="M35.467,33.01v-0.184c-2.737,0.149-5.274,0.504-7.346,1.063c-2.413,0.66-4.423,1.434-6.069,2.291
					c0.036,0.082,0.075,0.16,0.113,0.242c1.632-0.879,3.621-1.674,6.039-2.348C30.247,33.514,32.755,33.158,35.467,33.01z"/>
				<path class="st5" d="M29.05,35.004c-2.435,0.639-4.468,1.395-6.137,2.236c0.035,0.082,0.073,0.164,0.11,0.246
					c1.612-0.84,3.559-1.602,5.909-2.244c1.861-0.504,4.104-0.838,6.534-1v-0.184C33.091,34.213,30.891,34.527,29.05,35.004z"/>
				<g>
					<path class="st5" d="M43.533,29.992c-5.162-4.977-13.848-8.82-21.555-9.51c-0.384,0.506-0.739,1.041-1.064,1.598
						c7.618,0.672,16.26,4.404,21.484,9.262c2.422,2.271,4.389,4.58,5.946,6.891c-0.058,0.137-0.119,0.273-0.18,0.408
						c0.058,0.088,0.117,0.178,0.173,0.266c0.377-0.592,0.71-1.217,1.009-1.865C47.837,34.682,45.928,32.318,43.533,29.992z"/>
					<path class="st5" d="M43.668,29.68c-5.178-4.936-13.805-8.783-21.43-9.537c-0.089,0.111-0.174,0.227-0.26,0.34
						c7.708,0.689,16.393,4.533,21.555,9.51c2.395,2.326,4.304,4.689,5.813,7.049c0.062-0.133,0.122-0.264,0.181-0.396
						C47.999,34.314,46.063,31.98,43.668,29.68z"/>
					<path class="st5" d="M42.398,31.342c-5.224-4.858-13.866-8.59-21.484-9.262c-0.065,0.109-0.13,0.219-0.193,0.33
						c7.746,0.621,16.524,4.443,21.741,9.426c2.331,2.244,4.205,4.523,5.702,6.805c0.061-0.135,0.122-0.272,0.18-0.408
						C46.787,35.922,44.82,33.613,42.398,31.342z"/>
				</g>
			</g>
			<rect x="34.747" y="12.42" class="st6" width="2.013" height="33.672"/>
			<rect x="35.082" y="12.604" class="st6" width="1.342" height="33.184"/>
		</g>
		<use xlink:href="#SVGID_1_"  style="overflow:visible;fill:none;stroke:#1A171B;stroke-width:0.0753;"/>
	</g>
	<g>
		<path class="st8" d="M26.932,18.492v12.49c0,5.088,3.98,9.213,8.889,9.213c4.91,0,8.89-4.125,8.89-9.213v-12.49H26.932z"/>
		<path class="st9" d="M27.243,18.871v12.055c0,4.908,3.841,8.889,8.578,8.889c4.738,0,8.579-3.98,8.579-8.889V18.871H27.243z"/>
		<path class="st8" d="M30.663,22.656v7.84c0,3.193,2.31,5.783,5.159,5.783c2.849,0,5.159-2.59,5.159-5.783v-7.84H30.663z"/>
		<g>
			<path class="st10" d="M36.863,23.67h-2.085v1.828l0,0l0,0c0,0.549,0.467,0.996,1.042,0.996c0.576,0,1.042-0.447,1.042-0.996l0,0
				l0,0V23.67z"/>
			<g>
				<ellipse class="st0" cx="35.275" cy="24.172" rx="0.235" ry="0.242"/>
				<ellipse class="st0" cx="36.399" cy="24.172" rx="0.235" ry="0.242"/>
				<ellipse class="st0" cx="35.275" cy="25.584" rx="0.235" ry="0.242"/>
				<ellipse class="st0" cx="35.837" cy="24.861" rx="0.235" ry="0.242"/>
				<ellipse class="st0" cx="36.399" cy="25.584" rx="0.235" ry="0.242"/>
			</g>
		</g>
		<g>
			<path class="st10" d="M33.474,27.867H31.39v1.826l0,0l0,0c0,0.551,0.466,0.998,1.042,0.998c0.575,0,1.042-0.447,1.042-0.998l0,0
				l0,0V27.867z"/>
			<g>
				<ellipse class="st0" cx="31.886" cy="28.367" rx="0.235" ry="0.244"/>
				<ellipse class="st0" cx="33.009" cy="28.367" rx="0.235" ry="0.244"/>
				<ellipse class="st0" cx="31.886" cy="29.779" rx="0.235" ry="0.244"/>
				<ellipse class="st0" cx="32.447" cy="29.057" rx="0.235" ry="0.244"/>
				<ellipse class="st0" cx="33.009" cy="29.779" rx="0.235" ry="0.244"/>
			</g>
		</g>
		<g>
			<path class="st10" d="M36.863,27.867h-2.085v1.826l0,0l0,0c0,0.551,0.467,0.998,1.042,0.998c0.576,0,1.042-0.447,1.042-0.998l0,0
				l0,0V27.867z"/>
			<g>
				<ellipse class="st0" cx="35.275" cy="28.367" rx="0.235" ry="0.244"/>
				<ellipse class="st0" cx="36.399" cy="28.367" rx="0.235" ry="0.244"/>
				<ellipse class="st0" cx="35.275" cy="29.779" rx="0.235" ry="0.244"/>
				<ellipse class="st0" cx="35.837" cy="29.057" rx="0.235" ry="0.244"/>
				<ellipse class="st0" cx="36.399" cy="29.779" rx="0.235" ry="0.244"/>
			</g>
		</g>
		<g>
			<path class="st10" d="M40.253,27.867h-2.084v1.826l0,0l0,0c0,0.551,0.466,0.998,1.042,0.998c0.575,0,1.042-0.447,1.042-0.998l0,0
				l0,0V27.867z"/>
			<g>
				<ellipse class="st0" cx="38.665" cy="28.367" rx="0.234" ry="0.244"/>
				<ellipse class="st0" cx="39.789" cy="28.367" rx="0.235" ry="0.244"/>
				<ellipse class="st0" cx="38.665" cy="29.779" rx="0.234" ry="0.244"/>
				<ellipse class="st0" cx="39.227" cy="29.057" rx="0.235" ry="0.244"/>
				<ellipse class="st0" cx="39.789" cy="29.779" rx="0.235" ry="0.244"/>
			</g>
		</g>
		<g>
			<path class="st10" d="M36.863,32.182h-2.085v1.826l0,0l0,0c0,0.551,0.467,0.998,1.042,0.998c0.576,0,1.042-0.447,1.042-0.998l0,0
				l0,0V32.182z"/>
			<g>
				<ellipse class="st0" cx="35.275" cy="32.684" rx="0.235" ry="0.242"/>
				<ellipse class="st0" cx="36.399" cy="32.684" rx="0.235" ry="0.242"/>
				<ellipse class="st0" cx="35.275" cy="34.094" rx="0.235" ry="0.244"/>
				<ellipse class="st0" cx="35.837" cy="33.373" rx="0.235" ry="0.242"/>
				<ellipse class="st0" cx="36.399" cy="34.094" rx="0.235" ry="0.244"/>
			</g>
		</g>
		<g>
			<rect x="34.544" y="20.682" class="st11" width="2.586" height="0.168"/>
			<rect x="34.682" y="20.85" class="st12" width="2.31" height="0.17"/>
			<polygon class="st13" points="37.042,21.945 34.632,21.945 34.781,21.02 36.893,21.02 			"/>
			<path class="st13" d="M36.314,22.008c0-0.422-0.208-0.768-0.465-0.768c-0.256,0-0.465,0.346-0.465,0.768
				c0,0.037,0.004,0.072,0.007,0.105h0.916C36.311,22.08,36.314,22.045,36.314,22.008z"/>
			<path class="st13" d="M36.202,22.027c0-0.35-0.158-0.633-0.352-0.633c-0.194,0-0.352,0.283-0.352,0.633
				c0,0.029,0.003,0.059,0.005,0.086h0.694C36.199,22.086,36.202,22.057,36.202,22.027z"/>
			<polygon class="st13" points="36.326,21.945 35.374,21.945 34.494,21.945 34.494,22.283 35.5,22.283 36.201,22.283 37.18,22.283 
				37.18,21.945 			"/>
			<rect x="34.76" y="20.109" class="st13" width="0.503" height="0.572"/>
			<rect x="34.632" y="19.777" class="st13" width="0.778" height="0.332"/>
			<rect x="35.536" y="19.443" class="st13" width="0.603" height="1.238"/>
			<rect x="34.933" y="20.213" class="st1" width="0.157" height="0.307"/>
			<rect x="36.393" y="20.109" class="st13" width="0.502" height="0.572"/>
			<rect x="36.264" y="19.777" class="st13" width="0.779" height="0.332"/>
			<rect x="35.448" y="19.111" class="st13" width="0.779" height="0.332"/>
			<rect x="36.565" y="20.213" class="st1" width="0.157" height="0.307"/>
			<rect x="35.772" y="19.563" class="st1" width="0.157" height="0.307"/>
		</g>
		<g>
			<rect x="27.663" y="20.682" class="st11" width="2.587" height="0.168"/>
			<rect x="27.802" y="20.85" class="st12" width="2.31" height="0.17"/>
			<polygon class="st13" points="30.162,21.945 27.751,21.945 27.901,21.02 30.013,21.02 			"/>
			<path class="st13" d="M29.434,22.008c0-0.422-0.207-0.768-0.464-0.768c-0.257,0-0.465,0.346-0.465,0.768
				c0,0.037,0.003,0.072,0.006,0.105h0.916C29.431,22.08,29.434,22.045,29.434,22.008z"/>
			<path class="st13" d="M29.321,22.027c0-0.35-0.157-0.633-0.351-0.633c-0.194,0-0.351,0.283-0.351,0.633
				c0,0.029,0.002,0.059,0.004,0.086h0.694C29.319,22.086,29.321,22.057,29.321,22.027z"/>
			<polygon class="st13" points="29.446,21.945 28.495,21.945 27.613,21.945 27.613,22.283 28.62,22.283 29.321,22.283 30.3,22.283 
				30.3,21.945 			"/>
			<rect x="27.88" y="20.109" class="st13" width="0.502" height="0.572"/>
			<rect x="27.752" y="19.777" class="st13" width="0.779" height="0.332"/>
			<rect x="28.656" y="19.443" class="st13" width="0.602" height="1.238"/>
			<rect x="28.053" y="20.213" class="st1" width="0.157" height="0.307"/>
			<rect x="29.513" y="20.109" class="st13" width="0.502" height="0.572"/>
			<rect x="29.384" y="19.777" class="st13" width="0.778" height="0.332"/>
			<rect x="28.568" y="19.111" class="st13" width="0.778" height="0.332"/>
			<rect x="29.685" y="20.213" class="st1" width="0.157" height="0.307"/>
			<rect x="28.891" y="19.563" class="st1" width="0.157" height="0.307"/>
		</g>
		<g>
			<rect x="41.424" y="20.682" class="st11" width="2.586" height="0.168"/>
			<rect x="41.563" y="20.85" class="st12" width="2.31" height="0.17"/>
			<polygon class="st13" points="43.923,21.945 41.512,21.945 41.662,21.02 43.773,21.02 			"/>
			<path class="st13" d="M43.194,22.008c0-0.422-0.208-0.768-0.464-0.768c-0.257,0-0.464,0.346-0.464,0.768
				c0,0.037,0.004,0.072,0.006,0.105h0.917C43.191,22.08,43.194,22.045,43.194,22.008z"/>
			<path class="st13" d="M43.082,22.027c0-0.35-0.157-0.633-0.352-0.633c-0.194,0-0.352,0.283-0.352,0.633
				c0,0.029,0.003,0.059,0.005,0.086h0.694C43.079,22.086,43.082,22.057,43.082,22.027z"/>
			<polygon class="st13" points="43.206,21.945 42.254,21.945 41.374,21.945 41.374,22.283 42.38,22.283 43.081,22.283 
				44.06,22.283 44.06,21.945 			"/>
			<rect x="41.641" y="20.109" class="st13" width="0.502" height="0.572"/>
			<rect x="41.512" y="19.777" class="st13" width="0.779" height="0.332"/>
			<rect x="42.416" y="19.443" class="st13" width="0.603" height="1.238"/>
			<rect x="41.813" y="20.213" class="st1" width="0.157" height="0.307"/>
			<rect x="43.273" y="20.109" class="st13" width="0.502" height="0.572"/>
			<rect x="43.144" y="19.777" class="st13" width="0.779" height="0.332"/>
			<rect x="42.328" y="19.111" class="st13" width="0.778" height="0.332"/>
			<rect x="43.446" y="20.213" class="st1" width="0.157" height="0.307"/>
			<rect x="42.652" y="19.563" class="st1" width="0.157" height="0.307"/>
		</g>
		<g>
			<rect x="27.663" y="28.109" class="st11" width="2.587" height="0.17"/>
			<rect x="27.802" y="28.279" class="st12" width="2.31" height="0.168"/>
			<polygon class="st13" points="30.162,29.371 27.751,29.371 27.901,28.447 30.013,28.447 			"/>
			<path class="st13" d="M29.434,29.436c0-0.424-0.207-0.766-0.464-0.766c-0.257,0-0.465,0.342-0.465,0.766
				c0,0.035,0.003,0.07,0.006,0.105h0.916C29.431,29.506,29.434,29.471,29.434,29.436z"/>
			<path class="st13" d="M29.321,29.453c0-0.348-0.157-0.631-0.351-0.631c-0.194,0-0.351,0.283-0.351,0.631
				c0,0.031,0.002,0.059,0.004,0.088h0.694C29.319,29.512,29.321,29.484,29.321,29.453z"/>
			<polygon class="st13" points="29.446,29.371 28.495,29.371 27.613,29.371 27.613,29.709 28.62,29.709 29.321,29.709 30.3,29.709 
				30.3,29.371 			"/>
			<rect x="27.88" y="27.537" class="st13" width="0.502" height="0.572"/>
			<rect x="27.752" y="27.205" class="st13" width="0.779" height="0.332"/>
			<rect x="28.656" y="26.871" class="st13" width="0.602" height="1.238"/>
			<rect x="28.053" y="27.642" class="st1" width="0.157" height="0.305"/>
			<rect x="29.513" y="27.537" class="st13" width="0.502" height="0.572"/>
			<rect x="29.384" y="27.205" class="st13" width="0.778" height="0.332"/>
			<rect x="28.568" y="26.539" class="st13" width="0.778" height="0.332"/>
			<rect x="29.685" y="27.642" class="st1" width="0.157" height="0.305"/>
			<rect x="28.891" y="26.99" class="st1" width="0.157" height="0.307"/>
		</g>
		<g>
			<rect x="41.424" y="28.109" class="st11" width="2.586" height="0.17"/>
			<rect x="41.563" y="28.279" class="st12" width="2.31" height="0.168"/>
			<polygon class="st13" points="43.923,29.371 41.512,29.371 41.662,28.447 43.773,28.447 			"/>
			<path class="st13" d="M43.194,29.436c0-0.424-0.208-0.766-0.464-0.766c-0.257,0-0.464,0.342-0.464,0.766
				c0,0.035,0.004,0.07,0.006,0.105h0.917C43.191,29.506,43.194,29.471,43.194,29.436z"/>
			<path class="st13" d="M43.082,29.453c0-0.348-0.157-0.631-0.352-0.631c-0.194,0-0.352,0.283-0.352,0.631
				c0,0.031,0.003,0.059,0.005,0.088h0.694C43.079,29.512,43.082,29.484,43.082,29.453z"/>
			<polygon class="st13" points="43.206,29.371 42.254,29.371 41.374,29.371 41.374,29.709 42.38,29.709 43.081,29.709 
				44.06,29.709 44.06,29.371 			"/>
			<rect x="41.641" y="27.537" class="st13" width="0.502" height="0.572"/>
			<rect x="41.512" y="27.205" class="st13" width="0.779" height="0.332"/>
			<rect x="42.416" y="26.871" class="st13" width="0.603" height="1.238"/>
			<rect x="41.813" y="27.642" class="st1" width="0.157" height="0.305"/>
			<rect x="43.273" y="27.537" class="st13" width="0.502" height="0.572"/>
			<rect x="43.144" y="27.205" class="st13" width="0.779" height="0.332"/>
			<rect x="42.328" y="26.539" class="st13" width="0.778" height="0.332"/>
			<rect x="43.446" y="27.642" class="st1" width="0.157" height="0.305"/>
			<rect x="42.652" y="26.99" class="st1" width="0.157" height="0.307"/>
		</g>
		<g>
			<polygon class="st11" points="41.924,36.463 40.004,34.668 40.113,34.543 42.033,36.338 			"/>
			<polygon class="st12" points="41.712,36.492 39.997,34.891 40.107,34.764 41.822,36.367 			"/>
			<polygon class="st13" points="41.153,37.215 39.363,35.541 40.07,34.959 41.639,36.424 			"/>
			<path class="st13" d="M40.571,36.758c0.273-0.316,0.341-0.715,0.15-0.893s-0.567-0.068-0.84,0.246
				c-0.023,0.027-0.043,0.055-0.063,0.082l0.68,0.637C40.522,36.807,40.547,36.783,40.571,36.758z"/>
			<path class="st13" d="M40.475,36.691c0.226-0.26,0.292-0.578,0.148-0.713c-0.144-0.135-0.444-0.033-0.669,0.225
				c-0.02,0.021-0.036,0.045-0.053,0.068l0.515,0.48C40.435,36.732,40.456,36.713,40.475,36.691z"/>
			<polygon class="st13" points="40.621,36.717 39.914,36.057 39.26,35.445 39.042,35.697 39.789,36.395 40.309,36.881 
				41.037,37.561 41.255,37.311 			"/>
			<polygon class="st13" points="40.647,35.041 40.274,34.693 40.644,34.268 41.017,34.617 			"/>
			<polygon class="st13" points="41.126,34.719 40.548,34.18 40.763,33.934 41.341,34.473 			"/>
			<polygon class="st13" points="41.297,35.65 40.85,35.23 41.65,34.311 42.098,34.729 			"/>
			<polygon class="st1" points="40.624,34.801 40.507,34.691 40.705,34.465 40.821,34.574 			"/>
			<polygon class="st13" points="41.859,36.174 41.486,35.826 41.856,35.4 42.229,35.75 			"/>
			<polygon class="st13" points="42.338,35.852 41.76,35.313 41.975,35.066 42.553,35.605 			"/>
			<polygon class="st13" points="42.164,34.791 41.586,34.25 41.8,34.004 42.378,34.545 			"/>
			<polygon class="st1" points="41.836,35.936 41.719,35.824 41.917,35.598 42.033,35.707 			"/>
			<polygon class="st1" points="41.667,34.9 41.55,34.791 41.747,34.564 41.864,34.672 			"/>
		</g>
		<g>
			<polygon class="st11" points="29.732,36.463 31.653,34.668 31.543,34.543 29.623,36.338 			"/>
			<polygon class="st12" points="29.945,36.492 31.66,34.891 31.55,34.764 29.835,36.367 			"/>
			<polygon class="st13" points="30.504,37.215 32.294,35.541 31.586,34.959 30.018,36.424 			"/>
			<path class="st13" d="M31.086,36.758c-0.273-0.316-0.341-0.715-0.151-0.893c0.191-0.178,0.567-0.068,0.84,0.246
				c0.023,0.027,0.043,0.055,0.063,0.082l-0.681,0.637C31.135,36.807,31.109,36.783,31.086,36.758z"/>
			<path class="st13" d="M31.182,36.691c-0.226-0.26-0.292-0.578-0.147-0.713c0.143-0.135,0.444-0.033,0.669,0.225
				c0.019,0.021,0.036,0.045,0.053,0.068l-0.515,0.48C31.222,36.732,31.201,36.713,31.182,36.691z"/>
			<polygon class="st13" points="31.036,36.717 31.743,36.057 32.397,35.445 32.615,35.697 31.868,36.395 31.348,36.881 
				30.621,37.561 30.402,37.311 			"/>
			<polygon class="st13" points="31.01,35.041 31.383,34.693 31.013,34.268 30.641,34.617 			"/>
			<polygon class="st13" points="30.531,34.719 31.108,34.18 30.894,33.934 30.315,34.473 			"/>
			<polygon class="st13" points="30.36,35.65 30.807,35.23 30.006,34.311 29.558,34.729 			"/>
			<polygon class="st1" points="31.033,34.801 31.149,34.691 30.952,34.465 30.835,34.574 			"/>
			<polygon class="st13" points="29.798,36.174 30.171,35.826 29.801,35.4 29.428,35.75 			"/>
			<polygon class="st13" points="29.319,35.852 29.896,35.313 29.682,35.066 29.104,35.605 			"/>
			<polygon class="st13" points="29.493,34.791 30.072,34.25 29.857,34.004 29.279,34.545 			"/>
			<polygon class="st1" points="29.821,35.936 29.937,35.824 29.74,35.598 29.623,35.707 			"/>
			<polygon class="st1" points="29.991,34.9 30.107,34.791 29.909,34.564 29.792,34.672 			"/>
		</g>
	</g>
</g>
<linearGradient id="SVGID_3_" gradientUnits="userSpaceOnUse" x1="-3.3074" y1="52.5091" x2="93.2302" y2="7.4928">
	<stop  offset="0" style="stop-color:#707173"/>
	<stop  offset="0.0289" style="stop-color:#9A9B9C"/>
	<stop  offset="0.0577" style="stop-color:#BCBDBE"/>
	<stop  offset="0.0814" style="stop-color:#D1D2D3"/>
	<stop  offset="0.097" style="stop-color:#D9DADB"/>
	<stop  offset="0.1453" style="stop-color:#F1F1F2"/>
	<stop  offset="0.1697" style="stop-color:#FFFFFF"/>
	<stop  offset="0.1701" style="stop-color:#FFFFFF"/>
	<stop  offset="0.239" style="stop-color:#BEBFC0"/>
	<stop  offset="0.2892" style="stop-color:#969799"/>
	<stop  offset="0.3152" style="stop-color:#87888A"/>
	<stop  offset="0.3396" style="stop-color:#8B8C8E"/>
	<stop  offset="0.3659" style="stop-color:#98989A"/>
	<stop  offset="0.393" style="stop-color:#AEADAE"/>
	<stop  offset="0.4206" style="stop-color:#CCC9CA"/>
	<stop  offset="0.4303" style="stop-color:#D8D5D5"/>
	<stop  offset="0.4727" style="stop-color:#FFFFFF"/>
	<stop  offset="0.4857" style="stop-color:#F4F4F4"/>
	<stop  offset="0.528" style="stop-color:#D6D5D5"/>
	<stop  offset="0.5515" style="stop-color:#CAC9C9"/>
	<stop  offset="0.6182" style="stop-color:#9C9E9F"/>
	<stop  offset="0.6484" style="stop-color:#9FA1A2"/>
	<stop  offset="0.6735" style="stop-color:#AAACAD"/>
	<stop  offset="0.6848" style="stop-color:#B1B3B4"/>
	<stop  offset="0.7636" style="stop-color:#FFFFFF"/>
	<stop  offset="0.8689" style="stop-color:#AEAEAF"/>
	<stop  offset="0.9579" style="stop-color:#707072"/>
	<stop  offset="1" style="stop-color:#58585A"/>
</linearGradient>
<polygon class="st14" points="59.905,0.115 30.018,0.115 0.133,0.115 0.133,59.887 30.018,59.887 59.905,59.887 89.79,59.887 
	89.79,0.115 "/>
</svg>
