<?xml version="1.0" encoding="utf-8"?>
<!-- Generator: Adobe Illustrator 17.0.0, SVG Export Plug-In . SVG Version: 6.00 Build 0)  -->
<!DOCTYPE svg PUBLIC "-//W3C//DTD SVG 1.1//EN" "http://www.w3.org/Graphics/SVG/1.1/DTD/svg11.dtd">
<svg version="1.1" id="Calque_1" xmlns="http://www.w3.org/2000/svg" xmlns:xlink="http://www.w3.org/1999/xlink" x="0px" y="0px"
	 width="194.265px" height="93.362px" viewBox="0 0 194.265 93.362" style="enable-background:new 0 0 194.265 93.362;"
	 xml:space="preserve">
<style type="text/css">
	.st0{clip-path:url(#SVGID_2_);fill:url(#SVGID_3_);}
	.st1{fill:#32368C;}
</style>
<g>
	<defs>
		<path id="SVGID_1_" d="M4.775,0C2.149,0,0,2.148,0,4.775v83.812c0,2.626,2.149,4.775,4.775,4.775h184.716
			c2.626,0,4.774-2.149,4.774-4.775V4.775c0-2.627-2.148-4.775-4.774-4.775H4.775z"/>
	</defs>
	<clipPath id="SVGID_2_">
		<use xlink:href="#SVGID_1_"  style="overflow:visible;"/>
	</clipPath>
	
		<radialGradient id="SVGID_3_" cx="-302.5529" cy="729.6758" r="1" gradientTransform="matrix(76.203 0 0 -76.203 23152.5781 55650.1719)" gradientUnits="userSpaceOnUse">
		<stop  offset="0" style="stop-color:#FFED00"/>
		<stop  offset="0.3362" style="stop-color:#F5D800"/>
		<stop  offset="1" style="stop-color:#DCA300"/>
	</radialGradient>
	<rect x="0" y="0" class="st0" width="194.265" height="93.362"/>
</g>
<g>
	<path class="st1" d="M7.2,9.757h15.518c1.847,0,3.417,0.622,4.71,1.865c1.293,1.244,1.94,2.753,1.94,4.529v21.313
		c0,1.776-0.646,3.286-1.94,4.529c-1.293,1.243-2.863,1.865-4.71,1.865H7.2V9.757z M20.501,16.151h-4.434v21.313h4.434V16.151z"/>
	<path class="st1" d="M33.801,9.757h19.951v6.394H42.668v6.394h8.867v6.394h-8.867v8.525h11.084v6.394H33.801V9.757z"/>
	<path class="st1" d="M55.969,33.202h8.867v4.263h4.434v-7.459h-8.867c-1.201,0-2.24-0.422-3.117-1.266s-1.316-1.843-1.316-2.997
		v-9.591c0-1.776,0.646-3.286,1.94-4.529c1.293-1.243,2.863-1.865,4.71-1.865h8.867c1.847,0,3.417,0.622,4.71,1.865
		c1.293,1.244,1.94,2.753,1.94,4.529v4.263H69.27v-4.263h-4.434v7.459h8.867c1.201,0,2.24,0.422,3.117,1.266
		s1.316,1.843,1.316,2.997v9.591c0,1.776-0.646,3.286-1.94,4.529c-1.293,1.243-2.863,1.865-4.71,1.865h-8.867
		c-1.847,0-3.417-0.622-4.71-1.865c-1.293-1.244-1.94-2.753-1.94-4.529V33.202z"/>
	<path class="st1" d="M87.003,16.151h-5.542V9.757h19.951v6.394h-5.542v27.708h-8.867V16.151z"/>
	<path class="st1" d="M104.737,16.151c0-1.776,0.646-3.286,1.94-4.529c1.293-1.243,2.863-1.865,4.71-1.865h8.867
		c1.848,0,3.418,0.622,4.711,1.865c1.293,1.244,1.939,2.753,1.939,4.529v21.313c0,1.776-0.646,3.286-1.939,4.529
		c-1.293,1.243-2.863,1.865-4.711,1.865h-8.867c-1.847,0-3.417-0.622-4.71-1.865c-1.294-1.244-1.94-2.753-1.94-4.529V16.151z
		 M118.038,16.151h-4.434v21.313h4.434V16.151z"/>
	<path class="st1" d="M131.338,16.151c0-1.776,0.646-3.286,1.939-4.529c1.293-1.243,2.863-1.865,4.711-1.865h8.867
		c1.848,0,3.418,0.622,4.711,1.865c1.293,1.244,1.939,2.753,1.939,4.529v6.394h-8.867v-6.394h-4.434v21.313h4.434v-6.394h8.867
		v6.394c0,1.776-0.646,3.286-1.939,4.529c-1.293,1.243-2.863,1.865-4.711,1.865h-8.867c-1.848,0-3.418-0.622-4.711-1.865
		c-1.293-1.244-1.939-2.753-1.939-4.529V16.151z"/>
	<path class="st1" d="M157.94,9.757h8.867v12.788l4.434-8.525V9.757h8.867v4.263l-4.434,8.525c1.201,0,2.24,0.422,3.117,1.266
		s1.316,1.843,1.316,2.997v17.051h-8.867V28.939h-4.434v14.919h-8.867V9.757z"/>
</g>
<g>
	<path class="st1" d="M7.115,47.817h19.182v6.395H15.641v6.394h8.525v6.394h-8.525v8.525h10.657v6.395H7.115V47.817z"/>
	<path class="st1" d="M28.43,47.817h8.525v27.707h4.263V47.817h8.525v27.707c0,1.777-0.622,3.286-1.865,4.529
		c-1.244,1.244-2.753,1.865-4.529,1.865h-8.525c-1.776,0-3.286-0.621-4.529-1.865c-1.243-1.243-1.865-2.752-1.865-4.529V47.817z"/>
	<path class="st1" d="M54.008,47.817h14.919c1.776,0,3.286,0.621,4.529,1.865c1.243,1.243,1.865,2.752,1.865,4.529v10.656
		c0,1.154-0.422,2.153-1.266,2.997s-1.843,1.266-2.997,1.266l4.263,8.525v4.263h-8.525v-4.263l-4.263-8.525v12.788h-8.525V47.817z
		 M66.796,54.212h-4.263v8.525h4.263V54.212z"/>
	<path class="st1" d="M79.586,54.212c0-1.777,0.622-3.286,1.865-4.529c1.244-1.244,2.753-1.865,4.529-1.865h8.525
		c1.776,0,3.286,0.621,4.529,1.865c1.243,1.243,1.865,2.752,1.865,4.529v21.313c0,1.777-0.622,3.286-1.865,4.529
		c-1.244,1.244-2.753,1.865-4.529,1.865H85.98c-1.776,0-3.286-0.621-4.529-1.865c-1.243-1.243-1.865-2.752-1.865-4.529V54.212z
		 M92.375,54.212h-4.263v21.313h4.263V54.212z"/>
	<path class="st1" d="M105.165,47.817h14.919c1.776,0,3.286,0.621,4.529,1.865c1.243,1.243,1.864,2.752,1.864,4.529v10.656
		c0,1.775-0.621,3.285-1.864,4.529c-1.243,1.243-2.753,1.865-4.529,1.865h-6.394v10.656h-8.525V47.817z M117.952,54.212h-4.262
		v10.656h4.262V54.212z"/>
	<path class="st1" d="M130.743,47.817h19.182v6.395h-10.656v6.394h8.525v6.394h-8.525v8.525h10.656v6.395h-19.182V47.817z"/>
</g>
<g>
	<path class="st1" d="M151.936,79.589h2.729v2.729h-2.729V79.589z"/>
	<path class="st1" d="M156.028,73.449c0-0.568,0.199-1.052,0.598-1.45c0.397-0.397,0.881-0.596,1.449-0.596h2.729
		c0.568,0,1.052,0.198,1.449,0.596c0.398,0.398,0.598,0.882,0.598,1.45v2.046h-2.729v-2.046h-1.365v6.821h1.365v-2.047h2.729v2.047
		c0,0.568-0.199,1.052-0.598,1.449c-0.397,0.398-0.881,0.598-1.449,0.598h-2.729c-0.568,0-1.052-0.199-1.449-0.598
		c-0.398-0.397-0.598-0.881-0.598-1.449V73.449z"/>
	<path class="st1" d="M164.213,73.449c0-0.568,0.199-1.052,0.597-1.45c0.397-0.397,0.882-0.596,1.45-0.596h2.729
		c0.568,0,1.051,0.198,1.449,0.596c0.398,0.398,0.597,0.882,0.597,1.45v6.821c0,0.568-0.198,1.052-0.597,1.449
		c-0.398,0.398-0.881,0.598-1.449,0.598h-2.729c-0.568,0-1.053-0.199-1.45-0.598c-0.397-0.397-0.597-0.881-0.597-1.449V73.449z
		 M168.306,73.449h-1.364v6.821h1.364V73.449z"/>
	<path class="st1" d="M172.399,71.403h2.387l2.388,4.774l2.388-4.774h2.387v10.914h-2.729v-4.775l-2.046,4.093l-2.046-4.093v4.775
		h-2.729V71.403z"/>
</g>
<g>
</g>
<g>
</g>
<g>
</g>
<g>
</g>
<g>
</g>
<g>
</g>
<g>
</g>
<g>
</g>
<g>
</g>
<g>
</g>
<g>
</g>
<g>
</g>
<g>
</g>
<g>
</g>
<g>
</g>
</svg>
